%TF.GenerationSoftware,KiCad,Pcbnew,7.0.9*%
%TF.CreationDate,2023-12-30T21:06:32-05:00*%
%TF.ProjectId,esc,6573632e-6b69-4636-9164-5f7063625858,rev?*%
%TF.SameCoordinates,Original*%
%TF.FileFunction,Copper,L4,Bot*%
%TF.FilePolarity,Positive*%
%FSLAX46Y46*%
G04 Gerber Fmt 4.6, Leading zero omitted, Abs format (unit mm)*
G04 Created by KiCad (PCBNEW 7.0.9) date 2023-12-30 21:06:32*
%MOMM*%
%LPD*%
G01*
G04 APERTURE LIST*
G04 Aperture macros list*
%AMRoundRect*
0 Rectangle with rounded corners*
0 $1 Rounding radius*
0 $2 $3 $4 $5 $6 $7 $8 $9 X,Y pos of 4 corners*
0 Add a 4 corners polygon primitive as box body*
4,1,4,$2,$3,$4,$5,$6,$7,$8,$9,$2,$3,0*
0 Add four circle primitives for the rounded corners*
1,1,$1+$1,$2,$3*
1,1,$1+$1,$4,$5*
1,1,$1+$1,$6,$7*
1,1,$1+$1,$8,$9*
0 Add four rect primitives between the rounded corners*
20,1,$1+$1,$2,$3,$4,$5,0*
20,1,$1+$1,$4,$5,$6,$7,0*
20,1,$1+$1,$6,$7,$8,$9,0*
20,1,$1+$1,$8,$9,$2,$3,0*%
G04 Aperture macros list end*
%TA.AperFunction,SMDPad,CuDef*%
%ADD10R,1.000000X0.599999*%
%TD*%
%TA.AperFunction,ComponentPad*%
%ADD11R,2.300000X2.300000*%
%TD*%
%TA.AperFunction,ComponentPad*%
%ADD12C,2.300000*%
%TD*%
%TA.AperFunction,ComponentPad*%
%ADD13R,3.716000X3.716000*%
%TD*%
%TA.AperFunction,ComponentPad*%
%ADD14C,3.716000*%
%TD*%
%TA.AperFunction,ComponentPad*%
%ADD15O,1.200000X2.400000*%
%TD*%
%TA.AperFunction,ComponentPad*%
%ADD16C,1.600000*%
%TD*%
%TA.AperFunction,SMDPad,CuDef*%
%ADD17R,0.850000X0.500000*%
%TD*%
%TA.AperFunction,SMDPad,CuDef*%
%ADD18R,4.550000X4.410000*%
%TD*%
%TA.AperFunction,SMDPad,CuDef*%
%ADD19RoundRect,0.250000X-0.362500X-1.425000X0.362500X-1.425000X0.362500X1.425000X-0.362500X1.425000X0*%
%TD*%
%TA.AperFunction,SMDPad,CuDef*%
%ADD20RoundRect,0.250000X0.475000X-0.250000X0.475000X0.250000X-0.475000X0.250000X-0.475000X-0.250000X0*%
%TD*%
%TA.AperFunction,SMDPad,CuDef*%
%ADD21RoundRect,0.200000X0.275000X-0.200000X0.275000X0.200000X-0.275000X0.200000X-0.275000X-0.200000X0*%
%TD*%
%TA.AperFunction,SMDPad,CuDef*%
%ADD22RoundRect,0.200000X0.200000X0.275000X-0.200000X0.275000X-0.200000X-0.275000X0.200000X-0.275000X0*%
%TD*%
%TA.AperFunction,SMDPad,CuDef*%
%ADD23RoundRect,0.225000X-0.250000X0.225000X-0.250000X-0.225000X0.250000X-0.225000X0.250000X0.225000X0*%
%TD*%
%TA.AperFunction,SMDPad,CuDef*%
%ADD24RoundRect,0.200000X-0.200000X-0.275000X0.200000X-0.275000X0.200000X0.275000X-0.200000X0.275000X0*%
%TD*%
%TA.AperFunction,ViaPad*%
%ADD25C,0.800000*%
%TD*%
%TA.AperFunction,ViaPad*%
%ADD26C,2.540000*%
%TD*%
%TA.AperFunction,Conductor*%
%ADD27C,0.300000*%
%TD*%
%TA.AperFunction,Conductor*%
%ADD28C,0.200000*%
%TD*%
%TA.AperFunction,Conductor*%
%ADD29C,0.500000*%
%TD*%
G04 APERTURE END LIST*
D10*
%TO.P,U302,1,OUT*%
%TO.N,Net-(U302-OUT)*%
X68610207Y-110730544D03*
%TO.P,U302,2,GND*%
%TO.N,GND*%
X68610207Y-109780543D03*
%TO.P,U302,3,IN+*%
%TO.N,Net-(U302-IN+)*%
X68610207Y-108830545D03*
%TO.P,U302,4,IN-*%
%TO.N,GND*%
X71360207Y-108830545D03*
%TO.P,U302,5,VS*%
%TO.N,+5V*%
X71360207Y-110730544D03*
%TD*%
%TO.P,U202,1,OUT*%
%TO.N,Net-(U202-OUT)*%
X68850206Y-124976545D03*
%TO.P,U202,2,GND*%
%TO.N,GND*%
X68850206Y-124026544D03*
%TO.P,U202,3,IN+*%
%TO.N,Net-(U202-IN+)*%
X68850206Y-123076546D03*
%TO.P,U202,4,IN-*%
%TO.N,GND*%
X71600206Y-123076546D03*
%TO.P,U202,5,VS*%
%TO.N,+5V*%
X71600206Y-124976545D03*
%TD*%
%TO.P,U402,5,VS*%
%TO.N,+5V*%
X71222207Y-95981545D03*
%TO.P,U402,4,IN-*%
%TO.N,GND*%
X71222207Y-94081546D03*
%TO.P,U402,3,IN+*%
%TO.N,Net-(U402-IN+)*%
X68472207Y-94081546D03*
%TO.P,U402,2,GND*%
%TO.N,GND*%
X68472207Y-95031544D03*
%TO.P,U402,1,OUT*%
%TO.N,Net-(U402-OUT)*%
X68472207Y-95981545D03*
%TD*%
D11*
%TO.P,J102,1,1*%
%TO.N,PHASE_A*%
X56277720Y-110358543D03*
D12*
%TO.P,J102,2,2*%
%TO.N,PHASE_B*%
X56277720Y-106158544D03*
%TO.P,J102,3,3*%
%TO.N,PHASE_C*%
X56277720Y-101958545D03*
%TD*%
D13*
%TO.P,J101,1,+*%
%TO.N,VCC*%
X61747000Y-78009000D03*
D14*
%TO.P,J101,2,-*%
%TO.N,GND*%
X54547000Y-78009000D03*
D15*
%TO.P,J101,S1*%
%TO.N,N/C*%
X64897000Y-72009000D03*
%TO.P,J101,S2*%
X51397000Y-72009000D03*
%TD*%
D16*
%TO.P,U103,1,GND*%
%TO.N,GND*%
X104507207Y-116826544D03*
%TO.P,U103,2,0_RX1_CRX2_CS1*%
%TO.N,I_ERROR_A*%
X104507207Y-114286544D03*
%TO.P,U103,3,1_TX1_CTX2_MISO1*%
%TO.N,I_ERROR_B*%
X104507207Y-111746544D03*
%TO.P,U103,4,2_OUT2*%
%TO.N,I_ERROR_C*%
X104507207Y-109206544D03*
%TO.P,U103,5,3_LRCLK2*%
%TO.N,unconnected-(U103-3_LRCLK2-Pad5)*%
X104507207Y-106666544D03*
%TO.P,U103,6,4_BCLK2*%
%TO.N,unconnected-(U103-4_BCLK2-Pad6)*%
X104507207Y-104126544D03*
%TO.P,U103,7,5_IN2*%
%TO.N,unconnected-(U103-5_IN2-Pad7)*%
X104507207Y-101586544D03*
%TO.P,U103,8,6_OUT1D*%
%TO.N,unconnected-(U103-6_OUT1D-Pad8)*%
X104507207Y-99046544D03*
%TO.P,U103,9,7_RX2_OUT1A*%
%TO.N,unconnected-(U103-7_RX2_OUT1A-Pad9)*%
X104507207Y-96506544D03*
%TO.P,U103,10,8_TX2_IN1*%
%TO.N,unconnected-(U103-8_TX2_IN1-Pad10)*%
X104507207Y-93966544D03*
%TO.P,U103,11,9_OUT1C*%
%TO.N,ZERO_C*%
X104507207Y-91426544D03*
%TO.P,U103,12,10_CS_MQSR*%
%TO.N,ZERO_B*%
X104507207Y-88886544D03*
%TO.P,U103,13,11_MOSI_CTX1*%
%TO.N,ZERO_A*%
X104507207Y-86346544D03*
%TO.P,U103,14,12_MISO_MQSL*%
%TO.N,VCC_SENSE*%
X104507207Y-83806544D03*
%TO.P,U103,15,VBAT*%
%TO.N,unconnected-(U103-VBAT-Pad15)*%
X101967207Y-83806544D03*
%TO.P,U103,16,3V3*%
%TO.N,+3.3V*%
X99427207Y-83806544D03*
%TO.P,U103,17,GND*%
%TO.N,GND*%
X96887207Y-83806544D03*
%TO.P,U103,18,PROGRAM*%
%TO.N,unconnected-(U103-PROGRAM-Pad18)*%
X94347207Y-83806544D03*
%TO.P,U103,19,ON_OFF*%
%TO.N,unconnected-(U103-ON_OFF-Pad19)*%
X91807207Y-83806544D03*
%TO.P,U103,20,13_SCK_CRX1_LED*%
%TO.N,PWM_C*%
X89267207Y-83806544D03*
%TO.P,U103,21,14_A0_TX3_SPDIF_OUT*%
%TO.N,I_SENSE_C*%
X89267207Y-86346544D03*
%TO.P,U103,22,15_A1_RX3_SPDIF_IN*%
%TO.N,V_SENSE_C*%
X89267207Y-88886544D03*
%TO.P,U103,23,16_A2_RX4_SCL1*%
%TO.N,unconnected-(U103-16_A2_RX4_SCL1-Pad23)*%
X89267207Y-91426544D03*
%TO.P,U103,24,17_A3_TX4_SDA1*%
%TO.N,PWM_B*%
X89267207Y-93966544D03*
%TO.P,U103,25,18_A4_SDA0*%
%TO.N,I_SENSE_B*%
X89267207Y-96506544D03*
%TO.P,U103,26,19_A5_SCL0*%
%TO.N,V_SENSE_B*%
X89267207Y-99046544D03*
%TO.P,U103,27,20_A6_TX5_LRCLK1*%
%TO.N,unconnected-(U103-20_A6_TX5_LRCLK1-Pad27)*%
X89267207Y-101586544D03*
%TO.P,U103,28,21_A7_RX5_BCLK1*%
%TO.N,PWM_A*%
X89267207Y-104126544D03*
%TO.P,U103,29,22_A8_CTX1*%
%TO.N,I_SENSE_A*%
X89267207Y-106666544D03*
%TO.P,U103,30,23_A9_CRX1_MCLK1*%
%TO.N,V_SENSE_A*%
X89267207Y-109206544D03*
%TO.P,U103,31,3V3*%
%TO.N,+3.3V*%
X89267207Y-111746544D03*
%TO.P,U103,32,GND*%
%TO.N,GND*%
X89267207Y-114286544D03*
%TO.P,U103,33,VIN*%
%TO.N,+5V*%
X89267207Y-116826544D03*
%TO.P,U103,34,VUSB*%
%TO.N,unconnected-(U103-VUSB-Pad34)*%
X91807207Y-114286544D03*
%TO.P,U103,35,24_A10_TX6_SCL2*%
%TO.N,unconnected-(U103-24_A10_TX6_SCL2-Pad35)*%
X91807207Y-88886544D03*
%TO.P,U103,36,25_A11_RX6_SDA2*%
%TO.N,unconnected-(U103-25_A11_RX6_SDA2-Pad36)*%
X91807207Y-91426544D03*
%TO.P,U103,37,26_A12_MOSI1*%
%TO.N,unconnected-(U103-26_A12_MOSI1-Pad37)*%
X94347207Y-88886544D03*
%TO.P,U103,38,27_A13_SCK1*%
%TO.N,unconnected-(U103-27_A13_SCK1-Pad38)*%
X94347207Y-91426544D03*
%TO.P,U103,39,28_RX7*%
%TO.N,unconnected-(U103-28_RX7-Pad39)*%
X96887207Y-88886544D03*
%TO.P,U103,40,29_TX7*%
%TO.N,unconnected-(U103-29_TX7-Pad40)*%
X96887207Y-91426544D03*
%TO.P,U103,41,30_CRX3*%
%TO.N,unconnected-(U103-30_CRX3-Pad41)*%
X99427207Y-88886544D03*
%TO.P,U103,42,31_CTX3*%
%TO.N,unconnected-(U103-31_CTX3-Pad42)*%
X99427207Y-91426544D03*
%TO.P,U103,43,32_OUT1B*%
%TO.N,unconnected-(U103-32_OUT1B-Pad43)*%
X101967207Y-88886544D03*
%TO.P,U103,44,33_MCLK2*%
%TO.N,unconnected-(U103-33_MCLK2-Pad44)*%
X101967207Y-91426544D03*
%TD*%
D17*
%TO.P,Q402,1,S*%
%TO.N,Net-(U402-IN+)*%
X65641207Y-89990544D03*
%TO.P,Q402,2,S*%
X65641207Y-91260544D03*
%TO.P,Q402,3,S*%
X65641207Y-92530544D03*
%TO.P,Q402,4,G*%
%TO.N,Net-(Q402-G)*%
X65641207Y-93800544D03*
D18*
%TO.P,Q402,5,D*%
%TO.N,PHASE_C*%
X61691207Y-91895544D03*
%TD*%
D19*
%TO.P,R203,1*%
%TO.N,Net-(U202-IN+)*%
X68999207Y-119708544D03*
%TO.P,R203,2*%
%TO.N,GND*%
X74924207Y-119708544D03*
%TD*%
D20*
%TO.P,C201,1*%
%TO.N,VCC*%
X81733207Y-122583494D03*
%TO.P,C201,2*%
%TO.N,GND*%
X81733207Y-120683494D03*
%TD*%
D21*
%TO.P,R402,1*%
%TO.N,Net-(U401-LO)*%
X66567207Y-97380544D03*
%TO.P,R402,2*%
%TO.N,Net-(Q402-G)*%
X66567207Y-95730544D03*
%TD*%
%TO.P,R110,1*%
%TO.N,I_ERROR_A*%
X48500207Y-122286544D03*
%TO.P,R110,2*%
%TO.N,Net-(D105-A)*%
X48500207Y-120636544D03*
%TD*%
%TO.P,R302,1*%
%TO.N,Net-(U301-LO)*%
X66710207Y-111897544D03*
%TO.P,R302,2*%
%TO.N,Net-(Q302-G)*%
X66710207Y-110247544D03*
%TD*%
%TO.P,R112,1*%
%TO.N,I_ERROR_C*%
X43166207Y-122286544D03*
%TO.P,R112,2*%
%TO.N,Net-(D107-A)*%
X43166207Y-120636544D03*
%TD*%
D22*
%TO.P,R115,1*%
%TO.N,PHASE_C*%
X52564207Y-104252794D03*
%TO.P,R115,2*%
%TO.N,V_NEUTRAL*%
X50914207Y-104252794D03*
%TD*%
D23*
%TO.P,C405,1*%
%TO.N,GND*%
X73425207Y-94510544D03*
%TO.P,C405,2*%
%TO.N,+5V*%
X73425207Y-96060544D03*
%TD*%
%TO.P,C205,1*%
%TO.N,GND*%
X73654207Y-123505544D03*
%TO.P,C205,2*%
%TO.N,+5V*%
X73654207Y-125055544D03*
%TD*%
D20*
%TO.P,C401,1*%
%TO.N,VCC*%
X81520207Y-93765394D03*
%TO.P,C401,2*%
%TO.N,GND*%
X81520207Y-91865394D03*
%TD*%
%TO.P,C301,1*%
%TO.N,VCC*%
X81520207Y-108251544D03*
%TO.P,C301,2*%
%TO.N,GND*%
X81520207Y-106351544D03*
%TD*%
D22*
%TO.P,R108,1*%
%TO.N,+5V*%
X102851000Y-74676000D03*
%TO.P,R108,2*%
%TO.N,Net-(D103-A)*%
X101201000Y-74676000D03*
%TD*%
%TO.P,R109,1*%
%TO.N,+3.3V*%
X102978000Y-78867000D03*
%TO.P,R109,2*%
%TO.N,Net-(D104-A)*%
X101328000Y-78867000D03*
%TD*%
D17*
%TO.P,Q302,1,S*%
%TO.N,Net-(U302-IN+)*%
X65899207Y-104507544D03*
%TO.P,Q302,2,S*%
X65899207Y-105777544D03*
%TO.P,Q302,3,S*%
X65899207Y-107047544D03*
%TO.P,Q302,4,G*%
%TO.N,Net-(Q302-G)*%
X65899207Y-108317544D03*
D18*
%TO.P,Q302,5,D*%
%TO.N,PHASE_B*%
X61949207Y-106412544D03*
%TD*%
D21*
%TO.P,R202,1*%
%TO.N,Net-(U201-LO)*%
X66796207Y-125994544D03*
%TO.P,R202,2*%
%TO.N,Net-(Q202-G)*%
X66796207Y-124344544D03*
%TD*%
D24*
%TO.P,R107,1*%
%TO.N,VCC*%
X101455000Y-70612000D03*
%TO.P,R107,2*%
%TO.N,Net-(D102-A)*%
X103105000Y-70612000D03*
%TD*%
D21*
%TO.P,R111,1*%
%TO.N,I_ERROR_B*%
X45833207Y-122259544D03*
%TO.P,R111,2*%
%TO.N,Net-(D106-A)*%
X45833207Y-120609544D03*
%TD*%
D22*
%TO.P,R113,1*%
%TO.N,PHASE_A*%
X52564207Y-108189794D03*
%TO.P,R113,2*%
%TO.N,V_NEUTRAL*%
X50914207Y-108189794D03*
%TD*%
D19*
%TO.P,R403,1*%
%TO.N,Net-(U402-IN+)*%
X68557707Y-90967544D03*
%TO.P,R403,2*%
%TO.N,GND*%
X74482707Y-90967544D03*
%TD*%
%TO.P,R303,1*%
%TO.N,Net-(U302-IN+)*%
X68778707Y-105523544D03*
%TO.P,R303,2*%
%TO.N,GND*%
X74703707Y-105523544D03*
%TD*%
D22*
%TO.P,R114,1*%
%TO.N,PHASE_B*%
X52564207Y-106187794D03*
%TO.P,R114,2*%
%TO.N,V_NEUTRAL*%
X50914207Y-106187794D03*
%TD*%
D23*
%TO.P,C305,1*%
%TO.N,GND*%
X73392207Y-109307544D03*
%TO.P,C305,2*%
%TO.N,+5V*%
X73392207Y-110857544D03*
%TD*%
D17*
%TO.P,Q202,1,S*%
%TO.N,Net-(U202-IN+)*%
X65997207Y-118694344D03*
%TO.P,Q202,2,S*%
X65997207Y-119964344D03*
%TO.P,Q202,3,S*%
X65997207Y-121234344D03*
%TO.P,Q202,4,G*%
%TO.N,Net-(Q202-G)*%
X65997207Y-122504344D03*
D18*
%TO.P,Q202,5,D*%
%TO.N,PHASE_A*%
X62047207Y-120599344D03*
%TD*%
D25*
%TO.N,Net-(D102-A)*%
X104502000Y-70612000D03*
%TO.N,Net-(D104-A)*%
X99803000Y-78867000D03*
D26*
%TO.N,GND*%
X77202207Y-101459044D03*
D25*
X79356000Y-79502000D03*
X104375000Y-78867000D03*
D26*
X73011207Y-115556544D03*
D25*
X59803207Y-125462544D03*
X81642000Y-75184000D03*
X95377000Y-68580000D03*
X43420207Y-100189544D03*
X59422207Y-96760544D03*
X81520207Y-88632544D03*
X59676207Y-111238544D03*
D26*
X55626000Y-63500000D03*
D25*
X81647207Y-103110544D03*
D26*
X76948207Y-87108544D03*
D25*
X88119000Y-76073000D03*
D26*
X73011207Y-101459544D03*
D25*
X88138000Y-75057000D03*
X83566000Y-71323200D03*
X95377000Y-69596000D03*
D26*
X72630207Y-87108544D03*
D25*
X42658207Y-89140544D03*
X43166207Y-123430544D03*
X81774207Y-117207544D03*
X95358000Y-70612000D03*
X88138000Y-77089000D03*
D26*
X77329207Y-115556544D03*
D25*
X82804000Y-70510400D03*
D26*
X52324000Y-63500000D03*
D25*
%TO.N,VCC*%
X80377207Y-111619544D03*
D26*
X71012000Y-63373000D03*
D25*
X80377207Y-125970544D03*
D26*
X74295000Y-76073000D03*
X68566207Y-101459544D03*
X74300207Y-79361544D03*
D25*
X41642207Y-93585544D03*
D26*
X68693207Y-115556544D03*
D25*
X83928000Y-75184000D03*
D26*
X64408000Y-63373000D03*
D25*
X93961000Y-77089000D03*
D26*
X60946207Y-101459544D03*
D25*
X93980000Y-75057000D03*
D26*
X64883207Y-115556544D03*
X74295000Y-63373000D03*
X61106000Y-63373000D03*
X61073207Y-115556544D03*
D25*
X80250207Y-97268544D03*
D26*
X74295000Y-66548000D03*
D25*
X45579207Y-93966544D03*
X49643207Y-93966544D03*
X93961000Y-76073000D03*
X99803000Y-70612000D03*
D26*
X64756207Y-101459544D03*
X67710000Y-63373000D03*
X74295000Y-72898000D03*
X74295000Y-69723000D03*
D25*
%TO.N,+5V*%
X71360207Y-98538544D03*
D26*
X88881000Y-62611000D03*
X91929000Y-62611000D03*
D25*
X104375000Y-74676000D03*
D26*
X94977000Y-62611000D03*
X98025000Y-62611000D03*
D25*
X71487207Y-113016544D03*
%TO.N,I_SENSE_A*%
X91299207Y-106666544D03*
%TO.N,V_SENSE_A*%
X64883207Y-127113544D03*
X61073207Y-127113544D03*
X93706707Y-109968544D03*
%TO.N,I_SENSE_B*%
X80631207Y-112889544D03*
%TO.N,V_SENSE_B*%
X64883207Y-113029044D03*
X61073207Y-113016544D03*
%TO.N,I_SENSE_C*%
X80377207Y-98539044D03*
%TO.N,V_SENSE_C*%
X64756207Y-98538544D03*
X60946207Y-98538544D03*
%TO.N,+3.3V*%
X52564207Y-85457544D03*
%TO.N,Net-(U201-HO)*%
X84060207Y-123008842D03*
X62986207Y-127113544D03*
%TO.N,Net-(U201-LO)*%
X80504207Y-117207544D03*
X66796207Y-127113544D03*
%TO.N,Net-(U301-HO)*%
X83782535Y-108717100D03*
X62978207Y-113016544D03*
%TO.N,Net-(U301-LO)*%
X80504207Y-103110544D03*
X66788207Y-113016544D03*
%TO.N,Net-(U401-HO)*%
X62851207Y-98538544D03*
X83552207Y-94220544D03*
%TO.N,Net-(U401-LO)*%
X80377207Y-88632544D03*
X66661207Y-98538544D03*
%TO.N,PWM_B*%
X84187207Y-103110544D03*
%TO.N,Net-(D105-A)*%
X48500207Y-119493544D03*
%TO.N,Net-(D106-A)*%
X45833207Y-119493544D03*
%TO.N,Net-(D107-A)*%
X43166207Y-119493544D03*
%TO.N,Net-(D103-A)*%
X99803000Y-74676000D03*
%TO.N,V_NEUTRAL*%
X46087207Y-98665544D03*
X42785207Y-98665544D03*
X50786207Y-98665544D03*
%TO.N,Net-(U202-OUT)*%
X68820207Y-127113544D03*
%TO.N,Net-(U302-OUT)*%
X68693207Y-113016544D03*
%TO.N,Net-(U402-OUT)*%
X68439207Y-98538544D03*
%TO.N,ZERO_A*%
X45579207Y-92696544D03*
%TO.N,ZERO_B*%
X86409707Y-86410044D03*
X49643207Y-92696544D03*
%TO.N,ZERO_C*%
X51802207Y-94601544D03*
X86346207Y-88632044D03*
%TD*%
D27*
%TO.N,+3.3V*%
X52564207Y-85457544D02*
X55365207Y-82656544D01*
X55365207Y-82656544D02*
X98277207Y-82656544D01*
X98277207Y-82656544D02*
X99427207Y-83806544D01*
D28*
%TO.N,Net-(D102-A)*%
X104502000Y-70612000D02*
X103105000Y-70612000D01*
%TO.N,Net-(D104-A)*%
X99803000Y-78867000D02*
X101328000Y-78867000D01*
D27*
%TO.N,GND*%
X68610207Y-109780543D02*
X70410209Y-109780543D01*
X68472207Y-95031544D02*
X70272209Y-95031544D01*
X81733207Y-117248544D02*
X81774207Y-117207544D01*
X68850206Y-124026544D02*
X70650208Y-124026544D01*
X70650208Y-124026544D02*
X71600206Y-123076546D01*
X81520207Y-103237544D02*
X81520207Y-106351544D01*
X81647207Y-103110544D02*
X81520207Y-103237544D01*
X70410209Y-109780543D02*
X71360207Y-108830545D01*
X81733207Y-120683494D02*
X81733207Y-117248544D01*
X81520207Y-91865394D02*
X81520207Y-88632544D01*
X70272209Y-95031544D02*
X71222207Y-94081546D01*
%TO.N,VCC*%
X81733207Y-122583494D02*
X80377207Y-123939494D01*
X80250207Y-97268544D02*
X80250207Y-95035394D01*
D29*
X101455000Y-70612000D02*
X99803000Y-70612000D01*
D27*
X80377207Y-111619544D02*
X80377207Y-109394544D01*
X80377207Y-109394544D02*
X81520207Y-108251544D01*
X80250207Y-95035394D02*
X81520207Y-93765394D01*
X80377207Y-123939494D02*
X80377207Y-125970544D01*
%TO.N,+5V*%
X71222207Y-95981545D02*
X71222207Y-98400544D01*
D29*
X102851000Y-74676000D02*
X104375000Y-74676000D01*
D27*
X71360207Y-110730544D02*
X71360207Y-112889544D01*
X71360207Y-112889544D02*
X71487207Y-113016544D01*
X73654207Y-125055544D02*
X73654207Y-126359544D01*
X74789207Y-127494544D02*
X80758207Y-127494544D01*
X71222207Y-98400544D02*
X71360207Y-98538544D01*
X80758207Y-127494544D02*
X89267207Y-118985544D01*
X73654207Y-126359544D02*
X74789207Y-127494544D01*
X89267207Y-118985544D02*
X89267207Y-116826544D01*
X73265207Y-110730544D02*
X73392207Y-110857544D01*
X71301206Y-96060544D02*
X71222207Y-95981545D01*
X71600206Y-124976545D02*
X73575208Y-124976545D01*
X73575208Y-124976545D02*
X73654207Y-125055544D01*
X71360207Y-110730544D02*
X73265207Y-110730544D01*
X73425207Y-96060544D02*
X71301206Y-96060544D01*
%TO.N,I_SENSE_A*%
X91299207Y-106666544D02*
X89267207Y-106666544D01*
%TO.N,V_SENSE_A*%
X92944707Y-109206544D02*
X89267207Y-109206544D01*
X93706707Y-109968544D02*
X92944707Y-109206544D01*
%TO.N,I_SENSE_B*%
X88117207Y-111245544D02*
X88117207Y-97656544D01*
X80631207Y-112889544D02*
X86473207Y-112889544D01*
X86473207Y-112889544D02*
X88117207Y-111245544D01*
X88117207Y-97656544D02*
X89267207Y-96506544D01*
%TO.N,I_SENSE_C*%
X80377207Y-98539044D02*
X87616207Y-91300044D01*
X87616207Y-87997544D02*
X89267207Y-86346544D01*
X87616207Y-91300044D02*
X87616207Y-87997544D01*
D29*
%TO.N,PHASE_A*%
X52564207Y-109333544D02*
X53589206Y-110358543D01*
X53589206Y-110358543D02*
X56277720Y-110358543D01*
X52564207Y-108189794D02*
X52564207Y-109333544D01*
%TO.N,PHASE_B*%
X52564207Y-106187794D02*
X56248470Y-106187794D01*
X56248470Y-106187794D02*
X56277720Y-106158544D01*
%TO.N,PHASE_C*%
X54097206Y-101958545D02*
X56277720Y-101958545D01*
X52564207Y-103491544D02*
X54097206Y-101958545D01*
X52564207Y-104252794D02*
X52564207Y-103491544D01*
D27*
%TO.N,+3.3V*%
X102978000Y-80255751D02*
X99427207Y-83806544D01*
X102978000Y-78867000D02*
X102978000Y-80255751D01*
%TO.N,Net-(U201-LO)*%
X66796207Y-127113544D02*
X66796207Y-125994544D01*
%TO.N,Net-(U301-LO)*%
X66788207Y-113016544D02*
X66710207Y-112938544D01*
X66710207Y-112938544D02*
X66710207Y-111897544D01*
%TO.N,Net-(U401-LO)*%
X66567207Y-98444544D02*
X66661207Y-98538544D01*
X66567207Y-97380544D02*
X66567207Y-98444544D01*
%TO.N,PWM_B*%
X85711207Y-97522544D02*
X89267207Y-93966544D01*
X84187207Y-103110544D02*
X85711207Y-101586544D01*
X85711207Y-101586544D02*
X85711207Y-97522544D01*
D28*
%TO.N,Net-(D105-A)*%
X48500207Y-119493544D02*
X48500207Y-120636544D01*
%TO.N,Net-(D106-A)*%
X45833207Y-119493544D02*
X45833207Y-120609544D01*
%TO.N,Net-(D107-A)*%
X43166207Y-119493544D02*
X43166207Y-120636544D01*
%TO.N,Net-(D103-A)*%
X99803000Y-74676000D02*
X101201000Y-74676000D01*
D29*
X101201000Y-74676000D02*
X101200000Y-74676000D01*
D27*
%TO.N,Net-(Q202-G)*%
X65997207Y-123545544D02*
X66796207Y-124344544D01*
X65997207Y-122504344D02*
X65997207Y-123545544D01*
%TO.N,Net-(Q302-G)*%
X66710207Y-110247544D02*
X66686207Y-110247544D01*
X65899207Y-109460544D02*
X65899207Y-108317544D01*
X66686207Y-110247544D02*
X65899207Y-109460544D01*
%TO.N,Net-(Q402-G)*%
X66567207Y-95714044D02*
X65645207Y-94792044D01*
X65645207Y-94792044D02*
X65645207Y-93804544D01*
X65645207Y-93804544D02*
X65641207Y-93800544D01*
X66567207Y-95730544D02*
X66567207Y-95714044D01*
D28*
%TO.N,I_ERROR_A*%
X48500207Y-125055807D02*
X51789944Y-128345544D01*
X103364207Y-120460593D02*
X103364207Y-115429544D01*
X51789944Y-128345544D02*
X95479256Y-128345544D01*
X103364207Y-115429544D02*
X104507207Y-114286544D01*
X48500207Y-122286544D02*
X48500207Y-125055807D01*
X95479256Y-128345544D02*
X103364207Y-120460593D01*
%TO.N,I_ERROR_B*%
X95644942Y-128745544D02*
X105607207Y-118783279D01*
X105607207Y-118783279D02*
X105607207Y-112846544D01*
X51624259Y-128745544D02*
X95644942Y-128745544D01*
X105607207Y-112846544D02*
X104507207Y-111746544D01*
X45833207Y-122259544D02*
X45833207Y-122954492D01*
X45833207Y-122954492D02*
X51624259Y-128745544D01*
%TO.N,I_ERROR_C*%
X95810628Y-129145544D02*
X51458574Y-129145544D01*
X106007207Y-110706544D02*
X106007207Y-118948965D01*
X43166207Y-122286544D02*
X43206063Y-122326400D01*
X106007207Y-118948965D02*
X95810628Y-129145544D01*
X51458574Y-129145544D02*
X44599574Y-122286544D01*
X44599574Y-122286544D02*
X43166207Y-122286544D01*
X104507207Y-109206544D02*
X106007207Y-110706544D01*
D29*
%TO.N,V_NEUTRAL*%
X42785207Y-98665544D02*
X46087207Y-98665544D01*
X50977719Y-98857056D02*
X50786207Y-98665544D01*
X50786207Y-98665544D02*
X46087207Y-98665544D01*
X50977719Y-104189282D02*
X50977719Y-98857056D01*
X50914207Y-108189794D02*
X50914207Y-104252794D01*
X50914207Y-104252794D02*
X50977719Y-104189282D01*
D27*
%TO.N,Net-(U202-OUT)*%
X68850206Y-124976545D02*
X68850206Y-127083545D01*
X68850206Y-127083545D02*
X68820207Y-127113544D01*
%TO.N,Net-(U302-OUT)*%
X68693207Y-113016544D02*
X68693207Y-110813544D01*
X68693207Y-110813544D02*
X68610207Y-110730544D01*
%TO.N,Net-(U402-OUT)*%
X68439207Y-96014545D02*
X68472207Y-95981545D01*
X68439207Y-98538544D02*
X68439207Y-96014545D01*
%TO.N,ZERO_A*%
X55993207Y-83298544D02*
X87132861Y-83298544D01*
X46595207Y-92696544D02*
X55993207Y-83298544D01*
X103357207Y-85196544D02*
X104507207Y-86346544D01*
X45579207Y-92696544D02*
X46595207Y-92696544D01*
X87132861Y-83298544D02*
X89030861Y-85196544D01*
X89030861Y-85196544D02*
X103357207Y-85196544D01*
%TO.N,ZERO_B*%
X86409707Y-86410044D02*
X83806207Y-83806544D01*
X83806207Y-83806544D02*
X56192313Y-83806544D01*
X49643207Y-90355650D02*
X49643207Y-92696544D01*
X56192313Y-83806544D02*
X49643207Y-90355650D01*
%TO.N,ZERO_C*%
X86346207Y-88632044D02*
X86346207Y-88624544D01*
X86346207Y-88624544D02*
X82028207Y-84306544D01*
X51802207Y-88903756D02*
X51802207Y-94601544D01*
X82028207Y-84306544D02*
X56399419Y-84306544D01*
X56399419Y-84306544D02*
X51802207Y-88903756D01*
%TD*%
%TA.AperFunction,Conductor*%
%TO.N,VCC*%
G36*
X72357417Y-60985400D02*
G01*
X72376282Y-60985400D01*
X72493193Y-82006044D01*
X58530207Y-82006044D01*
X58463168Y-81986359D01*
X58417413Y-81933555D01*
X58406207Y-81882044D01*
X58406207Y-72661425D01*
X63796500Y-72661425D01*
X63811472Y-72818218D01*
X63870684Y-73019875D01*
X63920019Y-73115572D01*
X63966991Y-73206686D01*
X64096905Y-73371883D01*
X64096909Y-73371887D01*
X64255746Y-73509521D01*
X64437750Y-73614601D01*
X64437752Y-73614601D01*
X64437756Y-73614604D01*
X64636367Y-73683344D01*
X64844398Y-73713254D01*
X65054330Y-73703254D01*
X65258576Y-73653704D01*
X65344199Y-73614601D01*
X65449743Y-73566401D01*
X65449746Y-73566399D01*
X65449753Y-73566396D01*
X65620952Y-73444486D01*
X65690179Y-73371883D01*
X65765985Y-73292379D01*
X65821057Y-73206686D01*
X65879613Y-73115572D01*
X65957725Y-72920457D01*
X65997500Y-72714085D01*
X65997500Y-71356575D01*
X65982528Y-71199782D01*
X65923316Y-70998125D01*
X65827011Y-70811318D01*
X65827009Y-70811316D01*
X65827008Y-70811313D01*
X65697094Y-70646116D01*
X65697090Y-70646112D01*
X65538253Y-70508478D01*
X65356249Y-70403398D01*
X65356245Y-70403396D01*
X65356244Y-70403396D01*
X65157633Y-70334656D01*
X64949602Y-70304746D01*
X64949598Y-70304746D01*
X64739672Y-70314745D01*
X64535421Y-70364296D01*
X64535417Y-70364298D01*
X64344256Y-70451598D01*
X64344251Y-70451601D01*
X64173046Y-70573515D01*
X64173040Y-70573520D01*
X64028014Y-70725620D01*
X63914388Y-70902425D01*
X63836274Y-71097544D01*
X63816570Y-71199782D01*
X63796500Y-71303915D01*
X63796500Y-72661425D01*
X58406207Y-72661425D01*
X58406207Y-61095944D01*
X58425892Y-61028905D01*
X58478696Y-60983150D01*
X58530207Y-60971944D01*
X72311591Y-60971944D01*
X72357417Y-60985400D01*
G37*
%TD.AperFunction*%
%TD*%
%TA.AperFunction,Conductor*%
%TO.N,GND*%
G36*
X57778839Y-60979685D02*
G01*
X57824594Y-61032489D01*
X57835800Y-61084000D01*
X57835800Y-79886000D01*
X57816115Y-79953039D01*
X57763311Y-79998794D01*
X57711800Y-80010000D01*
X50289000Y-80010000D01*
X50221961Y-79990315D01*
X50176206Y-79937511D01*
X50165000Y-79886000D01*
X50165000Y-73132038D01*
X50184685Y-73064999D01*
X50237489Y-73019244D01*
X50306647Y-73009300D01*
X50370203Y-73038325D01*
X50399216Y-73075219D01*
X50466990Y-73206684D01*
X50596905Y-73371883D01*
X50596909Y-73371887D01*
X50755746Y-73509521D01*
X50937750Y-73614601D01*
X50937752Y-73614601D01*
X50937756Y-73614604D01*
X51136367Y-73683344D01*
X51344398Y-73713254D01*
X51554330Y-73703254D01*
X51758576Y-73653704D01*
X51844199Y-73614601D01*
X51949743Y-73566401D01*
X51949746Y-73566399D01*
X51949753Y-73566396D01*
X52120952Y-73444486D01*
X52190179Y-73371883D01*
X52265985Y-73292379D01*
X52265986Y-73292378D01*
X52379613Y-73115572D01*
X52457725Y-72920457D01*
X52497500Y-72714085D01*
X52497500Y-71356575D01*
X52482528Y-71199782D01*
X52423316Y-70998125D01*
X52327011Y-70811318D01*
X52327009Y-70811316D01*
X52327008Y-70811313D01*
X52197094Y-70646116D01*
X52197090Y-70646112D01*
X52038253Y-70508478D01*
X51856249Y-70403398D01*
X51856245Y-70403396D01*
X51856244Y-70403396D01*
X51657633Y-70334656D01*
X51449602Y-70304746D01*
X51449598Y-70304746D01*
X51239672Y-70314745D01*
X51035421Y-70364296D01*
X51035417Y-70364298D01*
X50844256Y-70451598D01*
X50844251Y-70451601D01*
X50673046Y-70573515D01*
X50673040Y-70573520D01*
X50528014Y-70725620D01*
X50414388Y-70902425D01*
X50404118Y-70928080D01*
X50360927Y-70983001D01*
X50294900Y-71005854D01*
X50227000Y-70989381D01*
X50178784Y-70938814D01*
X50165000Y-70881994D01*
X50165000Y-61084000D01*
X50184685Y-61016961D01*
X50237489Y-60971206D01*
X50289000Y-60960000D01*
X57711800Y-60960000D01*
X57778839Y-60979685D01*
G37*
%TD.AperFunction*%
%TD*%
%TA.AperFunction,Conductor*%
%TO.N,+5V*%
G36*
X99653997Y-60959606D02*
G01*
X99720971Y-60979503D01*
X99766558Y-61032452D01*
X99777600Y-61083605D01*
X99777600Y-67236321D01*
X99757915Y-67303360D01*
X99705111Y-67349115D01*
X99653122Y-67360320D01*
X86595000Y-67310000D01*
X83925000Y-67310000D01*
X83857961Y-67290315D01*
X83812206Y-67237511D01*
X83801000Y-67186000D01*
X83801000Y-61033594D01*
X83820685Y-60966555D01*
X83873489Y-60920800D01*
X83925391Y-60909595D01*
X99653997Y-60959606D01*
G37*
%TD.AperFunction*%
%TD*%
%TA.AperFunction,Conductor*%
%TO.N,VCC*%
G36*
X77470948Y-61005085D02*
G01*
X77516703Y-61057889D01*
X77527906Y-61108686D01*
X77578000Y-69850000D01*
X79232000Y-69850000D01*
X79299039Y-69869685D01*
X79344794Y-69922489D01*
X79356000Y-69974000D01*
X79356000Y-72393000D01*
X79336315Y-72460039D01*
X79283511Y-72505794D01*
X79232000Y-72517000D01*
X77832000Y-72517000D01*
X77832000Y-81882044D01*
X77812315Y-81949083D01*
X77759511Y-81994838D01*
X77708000Y-82006044D01*
X72493193Y-82006044D01*
X72376282Y-60985400D01*
X77403909Y-60985400D01*
X77470948Y-61005085D01*
G37*
%TD.AperFunction*%
%TD*%
%TA.AperFunction,Conductor*%
%TO.N,Net-(U402-IN+)*%
G36*
X69781746Y-88906229D02*
G01*
X69827501Y-88959033D01*
X69838707Y-89010544D01*
X69838707Y-94257044D01*
X69819022Y-94324083D01*
X69766218Y-94369838D01*
X69714707Y-94381044D01*
X69380438Y-94381044D01*
X69313399Y-94361359D01*
X69306127Y-94356311D01*
X69214538Y-94287748D01*
X69214535Y-94287746D01*
X69079689Y-94237452D01*
X69079690Y-94237452D01*
X69020090Y-94231045D01*
X69020088Y-94231044D01*
X69020080Y-94231044D01*
X69020071Y-94231044D01*
X67924336Y-94231044D01*
X67924330Y-94231045D01*
X67864723Y-94237452D01*
X67729878Y-94287746D01*
X67729871Y-94287750D01*
X67614662Y-94373996D01*
X67614659Y-94373999D01*
X67528413Y-94489208D01*
X67528408Y-94489217D01*
X67516601Y-94520876D01*
X67474731Y-94576810D01*
X67409267Y-94601228D01*
X67400419Y-94601544D01*
X67039207Y-94601544D01*
X66972168Y-94581859D01*
X66926413Y-94529055D01*
X66915207Y-94477544D01*
X66915207Y-92950544D01*
X64877707Y-92950544D01*
X64810668Y-92930859D01*
X64764913Y-92878055D01*
X64753707Y-92826544D01*
X64753707Y-89264554D01*
X64753707Y-89264544D01*
X64742154Y-89157088D01*
X64730948Y-89105577D01*
X64730882Y-89105381D01*
X64712352Y-89049703D01*
X64709858Y-88979878D01*
X64745510Y-88919789D01*
X64807990Y-88888514D01*
X64830006Y-88886544D01*
X69714707Y-88886544D01*
X69781746Y-88906229D01*
G37*
%TD.AperFunction*%
%TD*%
%TA.AperFunction,Conductor*%
%TO.N,PHASE_B*%
G36*
X64318246Y-103892229D02*
G01*
X64364001Y-103945033D01*
X64375207Y-103996544D01*
X64375207Y-108828544D01*
X64355522Y-108895583D01*
X64302718Y-108941338D01*
X64251207Y-108952544D01*
X59546207Y-108952544D01*
X59479168Y-108932859D01*
X59433413Y-108880055D01*
X59422207Y-108828544D01*
X59422207Y-108063544D01*
X53958207Y-108063544D01*
X53891168Y-108043859D01*
X53845413Y-107991055D01*
X53834207Y-107939544D01*
X53834207Y-103996544D01*
X53853892Y-103929505D01*
X53906696Y-103883750D01*
X53958207Y-103872544D01*
X64251207Y-103872544D01*
X64318246Y-103892229D01*
G37*
%TD.AperFunction*%
%TD*%
%TA.AperFunction,Conductor*%
%TO.N,GND*%
G36*
X71351206Y-113908254D02*
G01*
X71359639Y-113910046D01*
X71392561Y-113917044D01*
X71581853Y-113917044D01*
X71616266Y-113909729D01*
X71623208Y-113908254D01*
X71648988Y-113905544D01*
X75170207Y-113905544D01*
X75170207Y-124065544D01*
X70849207Y-124065544D01*
X70782168Y-124045859D01*
X70736413Y-123993055D01*
X70725207Y-123941544D01*
X70725207Y-114029544D01*
X70744892Y-113962505D01*
X70797696Y-113916750D01*
X70849207Y-113905544D01*
X71325426Y-113905544D01*
X71351206Y-113908254D01*
G37*
%TD.AperFunction*%
%TD*%
%TA.AperFunction,Conductor*%
%TO.N,GND*%
G36*
X79177246Y-85223229D02*
G01*
X79223001Y-85276033D01*
X79234207Y-85327544D01*
X79234207Y-126608544D01*
X79214522Y-126675583D01*
X79161718Y-126721338D01*
X79110207Y-126732544D01*
X75294207Y-126732544D01*
X75227168Y-126712859D01*
X75181413Y-126660055D01*
X75170207Y-126608544D01*
X75170207Y-124065544D01*
X75170207Y-85203544D01*
X79110207Y-85203544D01*
X79177246Y-85223229D01*
G37*
%TD.AperFunction*%
%TD*%
%TA.AperFunction,Conductor*%
%TO.N,Net-(U302-IN+)*%
G36*
X70035746Y-103638229D02*
G01*
X70081501Y-103691033D01*
X70092707Y-103742544D01*
X70092707Y-109006043D01*
X70073022Y-109073082D01*
X70020218Y-109118837D01*
X69968707Y-109130043D01*
X69518438Y-109130043D01*
X69451399Y-109110358D01*
X69444127Y-109105310D01*
X69352538Y-109036747D01*
X69352535Y-109036745D01*
X69217689Y-108986451D01*
X69217690Y-108986451D01*
X69158090Y-108980044D01*
X69158088Y-108980043D01*
X69158080Y-108980043D01*
X69158071Y-108980043D01*
X68062336Y-108980043D01*
X68062330Y-108980044D01*
X68002723Y-108986451D01*
X67867878Y-109036745D01*
X67867871Y-109036749D01*
X67752662Y-109122995D01*
X67752659Y-109122998D01*
X67666413Y-109238207D01*
X67666411Y-109238211D01*
X67666411Y-109238212D01*
X67660940Y-109252878D01*
X67619071Y-109308810D01*
X67553607Y-109333228D01*
X67544760Y-109333544D01*
X67293207Y-109333544D01*
X67226168Y-109313859D01*
X67180413Y-109261055D01*
X67169207Y-109209544D01*
X67169207Y-107682544D01*
X66686351Y-107682544D01*
X66619312Y-107662859D01*
X66612040Y-107657811D01*
X66566537Y-107623747D01*
X66566535Y-107623746D01*
X66431689Y-107573452D01*
X66431690Y-107573452D01*
X66372090Y-107567045D01*
X66372088Y-107567044D01*
X66372080Y-107567044D01*
X66372071Y-107567044D01*
X65426336Y-107567044D01*
X65426330Y-107567045D01*
X65366723Y-107573452D01*
X65231878Y-107623746D01*
X65231876Y-107623747D01*
X65186374Y-107657811D01*
X65120910Y-107682228D01*
X65112063Y-107682544D01*
X65007207Y-107682544D01*
X64940168Y-107662859D01*
X64894413Y-107610055D01*
X64883207Y-107558544D01*
X64883207Y-103742544D01*
X64902892Y-103675505D01*
X64955696Y-103629750D01*
X65007207Y-103618544D01*
X69968707Y-103618544D01*
X70035746Y-103638229D01*
G37*
%TD.AperFunction*%
%TD*%
%TA.AperFunction,Conductor*%
%TO.N,Net-(U202-IN+)*%
G36*
X70162746Y-117735229D02*
G01*
X70208501Y-117788033D01*
X70219707Y-117839544D01*
X70219707Y-123252044D01*
X70200022Y-123319083D01*
X70147218Y-123364838D01*
X70095707Y-123376044D01*
X69758437Y-123376044D01*
X69691398Y-123356359D01*
X69684126Y-123351311D01*
X69592537Y-123282748D01*
X69592534Y-123282746D01*
X69457688Y-123232452D01*
X69457689Y-123232452D01*
X69398089Y-123226045D01*
X69398087Y-123226044D01*
X69398079Y-123226044D01*
X69398070Y-123226044D01*
X68302335Y-123226044D01*
X68302329Y-123226045D01*
X68242722Y-123232452D01*
X68107877Y-123282746D01*
X68107875Y-123282748D01*
X67992662Y-123368996D01*
X67992658Y-123369000D01*
X67983782Y-123380857D01*
X67927848Y-123422727D01*
X67884517Y-123430544D01*
X67420207Y-123430544D01*
X67353168Y-123410859D01*
X67307413Y-123358055D01*
X67296207Y-123306544D01*
X67296207Y-121779544D01*
X66603784Y-121779544D01*
X66560451Y-121771726D01*
X66529689Y-121760252D01*
X66529690Y-121760252D01*
X66470090Y-121753845D01*
X66470088Y-121753844D01*
X66470080Y-121753844D01*
X66470071Y-121753844D01*
X65524336Y-121753844D01*
X65524330Y-121753845D01*
X65464723Y-121760252D01*
X65433963Y-121771726D01*
X65390630Y-121779544D01*
X65258707Y-121779544D01*
X65191668Y-121759859D01*
X65145913Y-121707055D01*
X65134707Y-121655544D01*
X65134707Y-118347554D01*
X65134707Y-118347544D01*
X65123154Y-118240088D01*
X65111948Y-118188577D01*
X65111844Y-118188266D01*
X65077823Y-118086046D01*
X65077820Y-118086040D01*
X65029892Y-118011463D01*
X65010207Y-117944423D01*
X65010207Y-117839544D01*
X65029892Y-117772505D01*
X65082696Y-117726750D01*
X65134207Y-117715544D01*
X70095707Y-117715544D01*
X70162746Y-117735229D01*
G37*
%TD.AperFunction*%
%TD*%
%TA.AperFunction,Conductor*%
%TO.N,GND*%
G36*
X75170207Y-109841544D02*
G01*
X70722207Y-109841544D01*
X70655168Y-109821859D01*
X70609413Y-109769055D01*
X70598207Y-109717544D01*
X70598207Y-99805544D01*
X70617892Y-99738505D01*
X70670696Y-99692750D01*
X70722207Y-99681544D01*
X75170207Y-99681544D01*
X75170207Y-109841544D01*
G37*
%TD.AperFunction*%
%TD*%
%TA.AperFunction,Conductor*%
%TO.N,PHASE_C*%
G36*
X64191246Y-89160229D02*
G01*
X64237001Y-89213033D01*
X64248207Y-89264544D01*
X64248207Y-94350544D01*
X64228522Y-94417583D01*
X64175718Y-94463338D01*
X64124207Y-94474544D01*
X58660207Y-94474544D01*
X58660207Y-96246140D01*
X58643594Y-96308140D01*
X58595028Y-96392258D01*
X58536534Y-96572284D01*
X58536533Y-96572288D01*
X58516747Y-96760544D01*
X58536533Y-96948800D01*
X58536534Y-96948803D01*
X58595025Y-97128821D01*
X58595028Y-97128828D01*
X58643594Y-97212947D01*
X58660207Y-97274946D01*
X58660207Y-103240544D01*
X58640522Y-103307583D01*
X58587718Y-103353338D01*
X58536207Y-103364544D01*
X53958207Y-103364544D01*
X53891168Y-103344859D01*
X53845413Y-103292055D01*
X53834207Y-103240544D01*
X53834207Y-89264544D01*
X53853892Y-89197505D01*
X53906696Y-89151750D01*
X53958207Y-89140544D01*
X64124207Y-89140544D01*
X64191246Y-89160229D01*
G37*
%TD.AperFunction*%
%TD*%
%TA.AperFunction,Conductor*%
%TO.N,GND*%
G36*
X75170207Y-95236544D02*
G01*
X74121213Y-95236544D01*
X74056116Y-95218082D01*
X74022647Y-95197438D01*
X73983908Y-95173543D01*
X73983905Y-95173541D01*
X73983904Y-95173541D01*
X73983901Y-95173540D01*
X73822916Y-95120195D01*
X73723553Y-95110044D01*
X73126869Y-95110044D01*
X73126851Y-95110045D01*
X73027499Y-95120194D01*
X73027496Y-95120195D01*
X72866512Y-95173540D01*
X72866505Y-95173543D01*
X72827767Y-95197438D01*
X72794297Y-95218082D01*
X72729201Y-95236544D01*
X71983679Y-95236544D01*
X71940346Y-95228726D01*
X71829689Y-95187453D01*
X71829690Y-95187453D01*
X71770090Y-95181046D01*
X71770088Y-95181045D01*
X71770080Y-95181045D01*
X71770071Y-95181045D01*
X70674336Y-95181045D01*
X70674330Y-95181046D01*
X70614723Y-95187453D01*
X70511540Y-95225939D01*
X70441848Y-95230923D01*
X70380525Y-95197438D01*
X70347041Y-95136115D01*
X70344207Y-95109757D01*
X70344207Y-85327544D01*
X70363892Y-85260505D01*
X70416696Y-85214750D01*
X70468207Y-85203544D01*
X75170207Y-85203544D01*
X75170207Y-95236544D01*
G37*
%TD.AperFunction*%
%TD*%
%TA.AperFunction,Conductor*%
%TO.N,PHASE_A*%
G36*
X58603246Y-108591229D02*
G01*
X58649001Y-108644033D01*
X58660207Y-108695544D01*
X58660207Y-118223544D01*
X64505207Y-118223544D01*
X64572246Y-118243229D01*
X64618001Y-118296033D01*
X64629207Y-118347544D01*
X64629207Y-122925544D01*
X64609522Y-122992583D01*
X64556718Y-123038338D01*
X64505207Y-123049544D01*
X53958207Y-123049544D01*
X53891168Y-123029859D01*
X53845413Y-122977055D01*
X53834207Y-122925544D01*
X53834207Y-108695544D01*
X53853892Y-108628505D01*
X53906696Y-108582750D01*
X53958207Y-108571544D01*
X58536207Y-108571544D01*
X58603246Y-108591229D01*
G37*
%TD.AperFunction*%
%TD*%
M02*
