%TF.GenerationSoftware,KiCad,Pcbnew,7.0.9*%
%TF.CreationDate,2023-12-30T21:06:32-05:00*%
%TF.ProjectId,esc,6573632e-6b69-4636-9164-5f7063625858,rev?*%
%TF.SameCoordinates,Original*%
%TF.FileFunction,Legend,Bot*%
%TF.FilePolarity,Positive*%
%FSLAX46Y46*%
G04 Gerber Fmt 4.6, Leading zero omitted, Abs format (unit mm)*
G04 Created by KiCad (PCBNEW 7.0.9) date 2023-12-30 21:06:32*
%MOMM*%
%LPD*%
G01*
G04 APERTURE LIST*
%ADD10C,0.150000*%
%ADD11C,0.100000*%
%ADD12C,0.200000*%
%ADD13C,0.120000*%
G04 APERTURE END LIST*
D10*
X72021485Y-111773619D02*
X72021485Y-112583142D01*
X72021485Y-112583142D02*
X71973866Y-112678380D01*
X71973866Y-112678380D02*
X71926247Y-112726000D01*
X71926247Y-112726000D02*
X71831009Y-112773619D01*
X71831009Y-112773619D02*
X71640533Y-112773619D01*
X71640533Y-112773619D02*
X71545295Y-112726000D01*
X71545295Y-112726000D02*
X71497676Y-112678380D01*
X71497676Y-112678380D02*
X71450057Y-112583142D01*
X71450057Y-112583142D02*
X71450057Y-111773619D01*
X71069104Y-111773619D02*
X70450057Y-111773619D01*
X70450057Y-111773619D02*
X70783390Y-112154571D01*
X70783390Y-112154571D02*
X70640533Y-112154571D01*
X70640533Y-112154571D02*
X70545295Y-112202190D01*
X70545295Y-112202190D02*
X70497676Y-112249809D01*
X70497676Y-112249809D02*
X70450057Y-112345047D01*
X70450057Y-112345047D02*
X70450057Y-112583142D01*
X70450057Y-112583142D02*
X70497676Y-112678380D01*
X70497676Y-112678380D02*
X70545295Y-112726000D01*
X70545295Y-112726000D02*
X70640533Y-112773619D01*
X70640533Y-112773619D02*
X70926247Y-112773619D01*
X70926247Y-112773619D02*
X71021485Y-112726000D01*
X71021485Y-112726000D02*
X71069104Y-112678380D01*
X69831009Y-111773619D02*
X69735771Y-111773619D01*
X69735771Y-111773619D02*
X69640533Y-111821238D01*
X69640533Y-111821238D02*
X69592914Y-111868857D01*
X69592914Y-111868857D02*
X69545295Y-111964095D01*
X69545295Y-111964095D02*
X69497676Y-112154571D01*
X69497676Y-112154571D02*
X69497676Y-112392666D01*
X69497676Y-112392666D02*
X69545295Y-112583142D01*
X69545295Y-112583142D02*
X69592914Y-112678380D01*
X69592914Y-112678380D02*
X69640533Y-112726000D01*
X69640533Y-112726000D02*
X69735771Y-112773619D01*
X69735771Y-112773619D02*
X69831009Y-112773619D01*
X69831009Y-112773619D02*
X69926247Y-112726000D01*
X69926247Y-112726000D02*
X69973866Y-112678380D01*
X69973866Y-112678380D02*
X70021485Y-112583142D01*
X70021485Y-112583142D02*
X70069104Y-112392666D01*
X70069104Y-112392666D02*
X70069104Y-112154571D01*
X70069104Y-112154571D02*
X70021485Y-111964095D01*
X70021485Y-111964095D02*
X69973866Y-111868857D01*
X69973866Y-111868857D02*
X69926247Y-111821238D01*
X69926247Y-111821238D02*
X69831009Y-111773619D01*
X69116723Y-111868857D02*
X69069104Y-111821238D01*
X69069104Y-111821238D02*
X68973866Y-111773619D01*
X68973866Y-111773619D02*
X68735771Y-111773619D01*
X68735771Y-111773619D02*
X68640533Y-111821238D01*
X68640533Y-111821238D02*
X68592914Y-111868857D01*
X68592914Y-111868857D02*
X68545295Y-111964095D01*
X68545295Y-111964095D02*
X68545295Y-112059333D01*
X68545295Y-112059333D02*
X68592914Y-112202190D01*
X68592914Y-112202190D02*
X69164342Y-112773619D01*
X69164342Y-112773619D02*
X68545295Y-112773619D01*
X72275485Y-125997619D02*
X72275485Y-126807142D01*
X72275485Y-126807142D02*
X72227866Y-126902380D01*
X72227866Y-126902380D02*
X72180247Y-126950000D01*
X72180247Y-126950000D02*
X72085009Y-126997619D01*
X72085009Y-126997619D02*
X71894533Y-126997619D01*
X71894533Y-126997619D02*
X71799295Y-126950000D01*
X71799295Y-126950000D02*
X71751676Y-126902380D01*
X71751676Y-126902380D02*
X71704057Y-126807142D01*
X71704057Y-126807142D02*
X71704057Y-125997619D01*
X71275485Y-126092857D02*
X71227866Y-126045238D01*
X71227866Y-126045238D02*
X71132628Y-125997619D01*
X71132628Y-125997619D02*
X70894533Y-125997619D01*
X70894533Y-125997619D02*
X70799295Y-126045238D01*
X70799295Y-126045238D02*
X70751676Y-126092857D01*
X70751676Y-126092857D02*
X70704057Y-126188095D01*
X70704057Y-126188095D02*
X70704057Y-126283333D01*
X70704057Y-126283333D02*
X70751676Y-126426190D01*
X70751676Y-126426190D02*
X71323104Y-126997619D01*
X71323104Y-126997619D02*
X70704057Y-126997619D01*
X70085009Y-125997619D02*
X69989771Y-125997619D01*
X69989771Y-125997619D02*
X69894533Y-126045238D01*
X69894533Y-126045238D02*
X69846914Y-126092857D01*
X69846914Y-126092857D02*
X69799295Y-126188095D01*
X69799295Y-126188095D02*
X69751676Y-126378571D01*
X69751676Y-126378571D02*
X69751676Y-126616666D01*
X69751676Y-126616666D02*
X69799295Y-126807142D01*
X69799295Y-126807142D02*
X69846914Y-126902380D01*
X69846914Y-126902380D02*
X69894533Y-126950000D01*
X69894533Y-126950000D02*
X69989771Y-126997619D01*
X69989771Y-126997619D02*
X70085009Y-126997619D01*
X70085009Y-126997619D02*
X70180247Y-126950000D01*
X70180247Y-126950000D02*
X70227866Y-126902380D01*
X70227866Y-126902380D02*
X70275485Y-126807142D01*
X70275485Y-126807142D02*
X70323104Y-126616666D01*
X70323104Y-126616666D02*
X70323104Y-126378571D01*
X70323104Y-126378571D02*
X70275485Y-126188095D01*
X70275485Y-126188095D02*
X70227866Y-126092857D01*
X70227866Y-126092857D02*
X70180247Y-126045238D01*
X70180247Y-126045238D02*
X70085009Y-125997619D01*
X69370723Y-126092857D02*
X69323104Y-126045238D01*
X69323104Y-126045238D02*
X69227866Y-125997619D01*
X69227866Y-125997619D02*
X68989771Y-125997619D01*
X68989771Y-125997619D02*
X68894533Y-126045238D01*
X68894533Y-126045238D02*
X68846914Y-126092857D01*
X68846914Y-126092857D02*
X68799295Y-126188095D01*
X68799295Y-126188095D02*
X68799295Y-126283333D01*
X68799295Y-126283333D02*
X68846914Y-126426190D01*
X68846914Y-126426190D02*
X69418342Y-126997619D01*
X69418342Y-126997619D02*
X68799295Y-126997619D01*
X71869085Y-97041619D02*
X71869085Y-97851142D01*
X71869085Y-97851142D02*
X71821466Y-97946380D01*
X71821466Y-97946380D02*
X71773847Y-97994000D01*
X71773847Y-97994000D02*
X71678609Y-98041619D01*
X71678609Y-98041619D02*
X71488133Y-98041619D01*
X71488133Y-98041619D02*
X71392895Y-97994000D01*
X71392895Y-97994000D02*
X71345276Y-97946380D01*
X71345276Y-97946380D02*
X71297657Y-97851142D01*
X71297657Y-97851142D02*
X71297657Y-97041619D01*
X70392895Y-97374952D02*
X70392895Y-98041619D01*
X70630990Y-96994000D02*
X70869085Y-97708285D01*
X70869085Y-97708285D02*
X70250038Y-97708285D01*
X69678609Y-97041619D02*
X69583371Y-97041619D01*
X69583371Y-97041619D02*
X69488133Y-97089238D01*
X69488133Y-97089238D02*
X69440514Y-97136857D01*
X69440514Y-97136857D02*
X69392895Y-97232095D01*
X69392895Y-97232095D02*
X69345276Y-97422571D01*
X69345276Y-97422571D02*
X69345276Y-97660666D01*
X69345276Y-97660666D02*
X69392895Y-97851142D01*
X69392895Y-97851142D02*
X69440514Y-97946380D01*
X69440514Y-97946380D02*
X69488133Y-97994000D01*
X69488133Y-97994000D02*
X69583371Y-98041619D01*
X69583371Y-98041619D02*
X69678609Y-98041619D01*
X69678609Y-98041619D02*
X69773847Y-97994000D01*
X69773847Y-97994000D02*
X69821466Y-97946380D01*
X69821466Y-97946380D02*
X69869085Y-97851142D01*
X69869085Y-97851142D02*
X69916704Y-97660666D01*
X69916704Y-97660666D02*
X69916704Y-97422571D01*
X69916704Y-97422571D02*
X69869085Y-97232095D01*
X69869085Y-97232095D02*
X69821466Y-97136857D01*
X69821466Y-97136857D02*
X69773847Y-97089238D01*
X69773847Y-97089238D02*
X69678609Y-97041619D01*
X68964323Y-97136857D02*
X68916704Y-97089238D01*
X68916704Y-97089238D02*
X68821466Y-97041619D01*
X68821466Y-97041619D02*
X68583371Y-97041619D01*
X68583371Y-97041619D02*
X68488133Y-97089238D01*
X68488133Y-97089238D02*
X68440514Y-97136857D01*
X68440514Y-97136857D02*
X68392895Y-97232095D01*
X68392895Y-97232095D02*
X68392895Y-97327333D01*
X68392895Y-97327333D02*
X68440514Y-97470190D01*
X68440514Y-97470190D02*
X69011942Y-98041619D01*
X69011942Y-98041619D02*
X68392895Y-98041619D01*
X58956264Y-91736924D02*
X58908645Y-91641686D01*
X58908645Y-91641686D02*
X58813407Y-91546448D01*
X58813407Y-91546448D02*
X58670549Y-91403591D01*
X58670549Y-91403591D02*
X58622930Y-91308353D01*
X58622930Y-91308353D02*
X58622930Y-91213115D01*
X58861026Y-91260734D02*
X58813407Y-91165496D01*
X58813407Y-91165496D02*
X58718168Y-91070258D01*
X58718168Y-91070258D02*
X58527692Y-91022639D01*
X58527692Y-91022639D02*
X58194359Y-91022639D01*
X58194359Y-91022639D02*
X58003883Y-91070258D01*
X58003883Y-91070258D02*
X57908645Y-91165496D01*
X57908645Y-91165496D02*
X57861026Y-91260734D01*
X57861026Y-91260734D02*
X57861026Y-91451210D01*
X57861026Y-91451210D02*
X57908645Y-91546448D01*
X57908645Y-91546448D02*
X58003883Y-91641686D01*
X58003883Y-91641686D02*
X58194359Y-91689305D01*
X58194359Y-91689305D02*
X58527692Y-91689305D01*
X58527692Y-91689305D02*
X58718168Y-91641686D01*
X58718168Y-91641686D02*
X58813407Y-91546448D01*
X58813407Y-91546448D02*
X58861026Y-91451210D01*
X58861026Y-91451210D02*
X58861026Y-91260734D01*
X58194359Y-92546448D02*
X58861026Y-92546448D01*
X57813407Y-92308353D02*
X58527692Y-92070258D01*
X58527692Y-92070258D02*
X58527692Y-92689305D01*
X57861026Y-93260734D02*
X57861026Y-93355972D01*
X57861026Y-93355972D02*
X57908645Y-93451210D01*
X57908645Y-93451210D02*
X57956264Y-93498829D01*
X57956264Y-93498829D02*
X58051502Y-93546448D01*
X58051502Y-93546448D02*
X58241978Y-93594067D01*
X58241978Y-93594067D02*
X58480073Y-93594067D01*
X58480073Y-93594067D02*
X58670549Y-93546448D01*
X58670549Y-93546448D02*
X58765787Y-93498829D01*
X58765787Y-93498829D02*
X58813407Y-93451210D01*
X58813407Y-93451210D02*
X58861026Y-93355972D01*
X58861026Y-93355972D02*
X58861026Y-93260734D01*
X58861026Y-93260734D02*
X58813407Y-93165496D01*
X58813407Y-93165496D02*
X58765787Y-93117877D01*
X58765787Y-93117877D02*
X58670549Y-93070258D01*
X58670549Y-93070258D02*
X58480073Y-93022639D01*
X58480073Y-93022639D02*
X58241978Y-93022639D01*
X58241978Y-93022639D02*
X58051502Y-93070258D01*
X58051502Y-93070258D02*
X57956264Y-93117877D01*
X57956264Y-93117877D02*
X57908645Y-93165496D01*
X57908645Y-93165496D02*
X57861026Y-93260734D01*
X57956264Y-93975020D02*
X57908645Y-94022639D01*
X57908645Y-94022639D02*
X57861026Y-94117877D01*
X57861026Y-94117877D02*
X57861026Y-94355972D01*
X57861026Y-94355972D02*
X57908645Y-94451210D01*
X57908645Y-94451210D02*
X57956264Y-94498829D01*
X57956264Y-94498829D02*
X58051502Y-94546448D01*
X58051502Y-94546448D02*
X58146740Y-94546448D01*
X58146740Y-94546448D02*
X58289597Y-94498829D01*
X58289597Y-94498829D02*
X58861026Y-93927401D01*
X58861026Y-93927401D02*
X58861026Y-94546448D01*
X75146254Y-117535363D02*
X75479587Y-117059172D01*
X75717682Y-117535363D02*
X75717682Y-116535363D01*
X75717682Y-116535363D02*
X75336730Y-116535363D01*
X75336730Y-116535363D02*
X75241492Y-116582982D01*
X75241492Y-116582982D02*
X75193873Y-116630601D01*
X75193873Y-116630601D02*
X75146254Y-116725839D01*
X75146254Y-116725839D02*
X75146254Y-116868696D01*
X75146254Y-116868696D02*
X75193873Y-116963934D01*
X75193873Y-116963934D02*
X75241492Y-117011553D01*
X75241492Y-117011553D02*
X75336730Y-117059172D01*
X75336730Y-117059172D02*
X75717682Y-117059172D01*
X74765301Y-116630601D02*
X74717682Y-116582982D01*
X74717682Y-116582982D02*
X74622444Y-116535363D01*
X74622444Y-116535363D02*
X74384349Y-116535363D01*
X74384349Y-116535363D02*
X74289111Y-116582982D01*
X74289111Y-116582982D02*
X74241492Y-116630601D01*
X74241492Y-116630601D02*
X74193873Y-116725839D01*
X74193873Y-116725839D02*
X74193873Y-116821077D01*
X74193873Y-116821077D02*
X74241492Y-116963934D01*
X74241492Y-116963934D02*
X74812920Y-117535363D01*
X74812920Y-117535363D02*
X74193873Y-117535363D01*
X73574825Y-116535363D02*
X73479587Y-116535363D01*
X73479587Y-116535363D02*
X73384349Y-116582982D01*
X73384349Y-116582982D02*
X73336730Y-116630601D01*
X73336730Y-116630601D02*
X73289111Y-116725839D01*
X73289111Y-116725839D02*
X73241492Y-116916315D01*
X73241492Y-116916315D02*
X73241492Y-117154410D01*
X73241492Y-117154410D02*
X73289111Y-117344886D01*
X73289111Y-117344886D02*
X73336730Y-117440124D01*
X73336730Y-117440124D02*
X73384349Y-117487744D01*
X73384349Y-117487744D02*
X73479587Y-117535363D01*
X73479587Y-117535363D02*
X73574825Y-117535363D01*
X73574825Y-117535363D02*
X73670063Y-117487744D01*
X73670063Y-117487744D02*
X73717682Y-117440124D01*
X73717682Y-117440124D02*
X73765301Y-117344886D01*
X73765301Y-117344886D02*
X73812920Y-117154410D01*
X73812920Y-117154410D02*
X73812920Y-116916315D01*
X73812920Y-116916315D02*
X73765301Y-116725839D01*
X73765301Y-116725839D02*
X73717682Y-116630601D01*
X73717682Y-116630601D02*
X73670063Y-116582982D01*
X73670063Y-116582982D02*
X73574825Y-116535363D01*
X72908158Y-116535363D02*
X72289111Y-116535363D01*
X72289111Y-116535363D02*
X72622444Y-116916315D01*
X72622444Y-116916315D02*
X72479587Y-116916315D01*
X72479587Y-116916315D02*
X72384349Y-116963934D01*
X72384349Y-116963934D02*
X72336730Y-117011553D01*
X72336730Y-117011553D02*
X72289111Y-117106791D01*
X72289111Y-117106791D02*
X72289111Y-117344886D01*
X72289111Y-117344886D02*
X72336730Y-117440124D01*
X72336730Y-117440124D02*
X72384349Y-117487744D01*
X72384349Y-117487744D02*
X72479587Y-117535363D01*
X72479587Y-117535363D02*
X72765301Y-117535363D01*
X72765301Y-117535363D02*
X72860539Y-117487744D01*
X72860539Y-117487744D02*
X72908158Y-117440124D01*
X83870787Y-120580446D02*
X83918407Y-120532827D01*
X83918407Y-120532827D02*
X83966026Y-120389970D01*
X83966026Y-120389970D02*
X83966026Y-120294732D01*
X83966026Y-120294732D02*
X83918407Y-120151875D01*
X83918407Y-120151875D02*
X83823168Y-120056637D01*
X83823168Y-120056637D02*
X83727930Y-120009018D01*
X83727930Y-120009018D02*
X83537454Y-119961399D01*
X83537454Y-119961399D02*
X83394597Y-119961399D01*
X83394597Y-119961399D02*
X83204121Y-120009018D01*
X83204121Y-120009018D02*
X83108883Y-120056637D01*
X83108883Y-120056637D02*
X83013645Y-120151875D01*
X83013645Y-120151875D02*
X82966026Y-120294732D01*
X82966026Y-120294732D02*
X82966026Y-120389970D01*
X82966026Y-120389970D02*
X83013645Y-120532827D01*
X83013645Y-120532827D02*
X83061264Y-120580446D01*
X83061264Y-120961399D02*
X83013645Y-121009018D01*
X83013645Y-121009018D02*
X82966026Y-121104256D01*
X82966026Y-121104256D02*
X82966026Y-121342351D01*
X82966026Y-121342351D02*
X83013645Y-121437589D01*
X83013645Y-121437589D02*
X83061264Y-121485208D01*
X83061264Y-121485208D02*
X83156502Y-121532827D01*
X83156502Y-121532827D02*
X83251740Y-121532827D01*
X83251740Y-121532827D02*
X83394597Y-121485208D01*
X83394597Y-121485208D02*
X83966026Y-120913780D01*
X83966026Y-120913780D02*
X83966026Y-121532827D01*
X82966026Y-122151875D02*
X82966026Y-122247113D01*
X82966026Y-122247113D02*
X83013645Y-122342351D01*
X83013645Y-122342351D02*
X83061264Y-122389970D01*
X83061264Y-122389970D02*
X83156502Y-122437589D01*
X83156502Y-122437589D02*
X83346978Y-122485208D01*
X83346978Y-122485208D02*
X83585073Y-122485208D01*
X83585073Y-122485208D02*
X83775549Y-122437589D01*
X83775549Y-122437589D02*
X83870787Y-122389970D01*
X83870787Y-122389970D02*
X83918407Y-122342351D01*
X83918407Y-122342351D02*
X83966026Y-122247113D01*
X83966026Y-122247113D02*
X83966026Y-122151875D01*
X83966026Y-122151875D02*
X83918407Y-122056637D01*
X83918407Y-122056637D02*
X83870787Y-122009018D01*
X83870787Y-122009018D02*
X83775549Y-121961399D01*
X83775549Y-121961399D02*
X83585073Y-121913780D01*
X83585073Y-121913780D02*
X83346978Y-121913780D01*
X83346978Y-121913780D02*
X83156502Y-121961399D01*
X83156502Y-121961399D02*
X83061264Y-122009018D01*
X83061264Y-122009018D02*
X83013645Y-122056637D01*
X83013645Y-122056637D02*
X82966026Y-122151875D01*
X83966026Y-123437589D02*
X83966026Y-122866161D01*
X83966026Y-123151875D02*
X82966026Y-123151875D01*
X82966026Y-123151875D02*
X83108883Y-123056637D01*
X83108883Y-123056637D02*
X83204121Y-122961399D01*
X83204121Y-122961399D02*
X83251740Y-122866161D01*
D11*
X67014825Y-95289391D02*
X67148158Y-95098915D01*
X67243396Y-95289391D02*
X67243396Y-94889391D01*
X67243396Y-94889391D02*
X67091015Y-94889391D01*
X67091015Y-94889391D02*
X67052920Y-94908439D01*
X67052920Y-94908439D02*
X67033873Y-94927486D01*
X67033873Y-94927486D02*
X67014825Y-94965582D01*
X67014825Y-94965582D02*
X67014825Y-95022724D01*
X67014825Y-95022724D02*
X67033873Y-95060820D01*
X67033873Y-95060820D02*
X67052920Y-95079867D01*
X67052920Y-95079867D02*
X67091015Y-95098915D01*
X67091015Y-95098915D02*
X67243396Y-95098915D01*
X66671968Y-95022724D02*
X66671968Y-95289391D01*
X66767206Y-94870344D02*
X66862444Y-95156058D01*
X66862444Y-95156058D02*
X66614825Y-95156058D01*
X66386254Y-94889391D02*
X66348159Y-94889391D01*
X66348159Y-94889391D02*
X66310063Y-94908439D01*
X66310063Y-94908439D02*
X66291016Y-94927486D01*
X66291016Y-94927486D02*
X66271968Y-94965582D01*
X66271968Y-94965582D02*
X66252921Y-95041772D01*
X66252921Y-95041772D02*
X66252921Y-95137010D01*
X66252921Y-95137010D02*
X66271968Y-95213201D01*
X66271968Y-95213201D02*
X66291016Y-95251296D01*
X66291016Y-95251296D02*
X66310063Y-95270344D01*
X66310063Y-95270344D02*
X66348159Y-95289391D01*
X66348159Y-95289391D02*
X66386254Y-95289391D01*
X66386254Y-95289391D02*
X66424349Y-95270344D01*
X66424349Y-95270344D02*
X66443397Y-95251296D01*
X66443397Y-95251296D02*
X66462444Y-95213201D01*
X66462444Y-95213201D02*
X66481492Y-95137010D01*
X66481492Y-95137010D02*
X66481492Y-95041772D01*
X66481492Y-95041772D02*
X66462444Y-94965582D01*
X66462444Y-94965582D02*
X66443397Y-94927486D01*
X66443397Y-94927486D02*
X66424349Y-94908439D01*
X66424349Y-94908439D02*
X66386254Y-94889391D01*
X66100540Y-94927486D02*
X66081492Y-94908439D01*
X66081492Y-94908439D02*
X66043397Y-94889391D01*
X66043397Y-94889391D02*
X65948159Y-94889391D01*
X65948159Y-94889391D02*
X65910064Y-94908439D01*
X65910064Y-94908439D02*
X65891016Y-94927486D01*
X65891016Y-94927486D02*
X65871969Y-94965582D01*
X65871969Y-94965582D02*
X65871969Y-95003677D01*
X65871969Y-95003677D02*
X65891016Y-95060820D01*
X65891016Y-95060820D02*
X66119588Y-95289391D01*
X66119588Y-95289391D02*
X65871969Y-95289391D01*
X67108825Y-109767391D02*
X67242158Y-109576915D01*
X67337396Y-109767391D02*
X67337396Y-109367391D01*
X67337396Y-109367391D02*
X67185015Y-109367391D01*
X67185015Y-109367391D02*
X67146920Y-109386439D01*
X67146920Y-109386439D02*
X67127873Y-109405486D01*
X67127873Y-109405486D02*
X67108825Y-109443582D01*
X67108825Y-109443582D02*
X67108825Y-109500724D01*
X67108825Y-109500724D02*
X67127873Y-109538820D01*
X67127873Y-109538820D02*
X67146920Y-109557867D01*
X67146920Y-109557867D02*
X67185015Y-109576915D01*
X67185015Y-109576915D02*
X67337396Y-109576915D01*
X66975492Y-109367391D02*
X66727873Y-109367391D01*
X66727873Y-109367391D02*
X66861206Y-109519772D01*
X66861206Y-109519772D02*
X66804063Y-109519772D01*
X66804063Y-109519772D02*
X66765968Y-109538820D01*
X66765968Y-109538820D02*
X66746920Y-109557867D01*
X66746920Y-109557867D02*
X66727873Y-109595963D01*
X66727873Y-109595963D02*
X66727873Y-109691201D01*
X66727873Y-109691201D02*
X66746920Y-109729296D01*
X66746920Y-109729296D02*
X66765968Y-109748344D01*
X66765968Y-109748344D02*
X66804063Y-109767391D01*
X66804063Y-109767391D02*
X66918349Y-109767391D01*
X66918349Y-109767391D02*
X66956444Y-109748344D01*
X66956444Y-109748344D02*
X66975492Y-109729296D01*
X66480254Y-109367391D02*
X66442159Y-109367391D01*
X66442159Y-109367391D02*
X66404063Y-109386439D01*
X66404063Y-109386439D02*
X66385016Y-109405486D01*
X66385016Y-109405486D02*
X66365968Y-109443582D01*
X66365968Y-109443582D02*
X66346921Y-109519772D01*
X66346921Y-109519772D02*
X66346921Y-109615010D01*
X66346921Y-109615010D02*
X66365968Y-109691201D01*
X66365968Y-109691201D02*
X66385016Y-109729296D01*
X66385016Y-109729296D02*
X66404063Y-109748344D01*
X66404063Y-109748344D02*
X66442159Y-109767391D01*
X66442159Y-109767391D02*
X66480254Y-109767391D01*
X66480254Y-109767391D02*
X66518349Y-109748344D01*
X66518349Y-109748344D02*
X66537397Y-109729296D01*
X66537397Y-109729296D02*
X66556444Y-109691201D01*
X66556444Y-109691201D02*
X66575492Y-109615010D01*
X66575492Y-109615010D02*
X66575492Y-109519772D01*
X66575492Y-109519772D02*
X66556444Y-109443582D01*
X66556444Y-109443582D02*
X66537397Y-109405486D01*
X66537397Y-109405486D02*
X66518349Y-109386439D01*
X66518349Y-109386439D02*
X66480254Y-109367391D01*
X66194540Y-109405486D02*
X66175492Y-109386439D01*
X66175492Y-109386439D02*
X66137397Y-109367391D01*
X66137397Y-109367391D02*
X66042159Y-109367391D01*
X66042159Y-109367391D02*
X66004064Y-109386439D01*
X66004064Y-109386439D02*
X65985016Y-109405486D01*
X65985016Y-109405486D02*
X65965969Y-109443582D01*
X65965969Y-109443582D02*
X65965969Y-109481677D01*
X65965969Y-109481677D02*
X65985016Y-109538820D01*
X65985016Y-109538820D02*
X66213588Y-109767391D01*
X66213588Y-109767391D02*
X65965969Y-109767391D01*
D10*
X49365254Y-104962363D02*
X49698587Y-104486172D01*
X49936682Y-104962363D02*
X49936682Y-103962363D01*
X49936682Y-103962363D02*
X49555730Y-103962363D01*
X49555730Y-103962363D02*
X49460492Y-104009982D01*
X49460492Y-104009982D02*
X49412873Y-104057601D01*
X49412873Y-104057601D02*
X49365254Y-104152839D01*
X49365254Y-104152839D02*
X49365254Y-104295696D01*
X49365254Y-104295696D02*
X49412873Y-104390934D01*
X49412873Y-104390934D02*
X49460492Y-104438553D01*
X49460492Y-104438553D02*
X49555730Y-104486172D01*
X49555730Y-104486172D02*
X49936682Y-104486172D01*
X48412873Y-104962363D02*
X48984301Y-104962363D01*
X48698587Y-104962363D02*
X48698587Y-103962363D01*
X48698587Y-103962363D02*
X48793825Y-104105220D01*
X48793825Y-104105220D02*
X48889063Y-104200458D01*
X48889063Y-104200458D02*
X48984301Y-104248077D01*
X47460492Y-104962363D02*
X48031920Y-104962363D01*
X47746206Y-104962363D02*
X47746206Y-103962363D01*
X47746206Y-103962363D02*
X47841444Y-104105220D01*
X47841444Y-104105220D02*
X47936682Y-104200458D01*
X47936682Y-104200458D02*
X48031920Y-104248077D01*
X46555730Y-103962363D02*
X47031920Y-103962363D01*
X47031920Y-103962363D02*
X47079539Y-104438553D01*
X47079539Y-104438553D02*
X47031920Y-104390934D01*
X47031920Y-104390934D02*
X46936682Y-104343315D01*
X46936682Y-104343315D02*
X46698587Y-104343315D01*
X46698587Y-104343315D02*
X46603349Y-104390934D01*
X46603349Y-104390934D02*
X46555730Y-104438553D01*
X46555730Y-104438553D02*
X46508111Y-104533791D01*
X46508111Y-104533791D02*
X46508111Y-104771886D01*
X46508111Y-104771886D02*
X46555730Y-104867124D01*
X46555730Y-104867124D02*
X46603349Y-104914744D01*
X46603349Y-104914744D02*
X46698587Y-104962363D01*
X46698587Y-104962363D02*
X46936682Y-104962363D01*
X46936682Y-104962363D02*
X47031920Y-104914744D01*
X47031920Y-104914744D02*
X47079539Y-104867124D01*
X75308787Y-94039496D02*
X75356407Y-93991877D01*
X75356407Y-93991877D02*
X75404026Y-93849020D01*
X75404026Y-93849020D02*
X75404026Y-93753782D01*
X75404026Y-93753782D02*
X75356407Y-93610925D01*
X75356407Y-93610925D02*
X75261168Y-93515687D01*
X75261168Y-93515687D02*
X75165930Y-93468068D01*
X75165930Y-93468068D02*
X74975454Y-93420449D01*
X74975454Y-93420449D02*
X74832597Y-93420449D01*
X74832597Y-93420449D02*
X74642121Y-93468068D01*
X74642121Y-93468068D02*
X74546883Y-93515687D01*
X74546883Y-93515687D02*
X74451645Y-93610925D01*
X74451645Y-93610925D02*
X74404026Y-93753782D01*
X74404026Y-93753782D02*
X74404026Y-93849020D01*
X74404026Y-93849020D02*
X74451645Y-93991877D01*
X74451645Y-93991877D02*
X74499264Y-94039496D01*
X74737359Y-94896639D02*
X75404026Y-94896639D01*
X74356407Y-94658544D02*
X75070692Y-94420449D01*
X75070692Y-94420449D02*
X75070692Y-95039496D01*
X74404026Y-95610925D02*
X74404026Y-95706163D01*
X74404026Y-95706163D02*
X74451645Y-95801401D01*
X74451645Y-95801401D02*
X74499264Y-95849020D01*
X74499264Y-95849020D02*
X74594502Y-95896639D01*
X74594502Y-95896639D02*
X74784978Y-95944258D01*
X74784978Y-95944258D02*
X75023073Y-95944258D01*
X75023073Y-95944258D02*
X75213549Y-95896639D01*
X75213549Y-95896639D02*
X75308787Y-95849020D01*
X75308787Y-95849020D02*
X75356407Y-95801401D01*
X75356407Y-95801401D02*
X75404026Y-95706163D01*
X75404026Y-95706163D02*
X75404026Y-95610925D01*
X75404026Y-95610925D02*
X75356407Y-95515687D01*
X75356407Y-95515687D02*
X75308787Y-95468068D01*
X75308787Y-95468068D02*
X75213549Y-95420449D01*
X75213549Y-95420449D02*
X75023073Y-95372830D01*
X75023073Y-95372830D02*
X74784978Y-95372830D01*
X74784978Y-95372830D02*
X74594502Y-95420449D01*
X74594502Y-95420449D02*
X74499264Y-95468068D01*
X74499264Y-95468068D02*
X74451645Y-95515687D01*
X74451645Y-95515687D02*
X74404026Y-95610925D01*
X74404026Y-96849020D02*
X74404026Y-96372830D01*
X74404026Y-96372830D02*
X74880216Y-96325211D01*
X74880216Y-96325211D02*
X74832597Y-96372830D01*
X74832597Y-96372830D02*
X74784978Y-96468068D01*
X74784978Y-96468068D02*
X74784978Y-96706163D01*
X74784978Y-96706163D02*
X74832597Y-96801401D01*
X74832597Y-96801401D02*
X74880216Y-96849020D01*
X74880216Y-96849020D02*
X74975454Y-96896639D01*
X74975454Y-96896639D02*
X75213549Y-96896639D01*
X75213549Y-96896639D02*
X75308787Y-96849020D01*
X75308787Y-96849020D02*
X75356407Y-96801401D01*
X75356407Y-96801401D02*
X75404026Y-96706163D01*
X75404026Y-96706163D02*
X75404026Y-96468068D01*
X75404026Y-96468068D02*
X75356407Y-96372830D01*
X75356407Y-96372830D02*
X75308787Y-96325211D01*
X75537787Y-123161496D02*
X75585407Y-123113877D01*
X75585407Y-123113877D02*
X75633026Y-122971020D01*
X75633026Y-122971020D02*
X75633026Y-122875782D01*
X75633026Y-122875782D02*
X75585407Y-122732925D01*
X75585407Y-122732925D02*
X75490168Y-122637687D01*
X75490168Y-122637687D02*
X75394930Y-122590068D01*
X75394930Y-122590068D02*
X75204454Y-122542449D01*
X75204454Y-122542449D02*
X75061597Y-122542449D01*
X75061597Y-122542449D02*
X74871121Y-122590068D01*
X74871121Y-122590068D02*
X74775883Y-122637687D01*
X74775883Y-122637687D02*
X74680645Y-122732925D01*
X74680645Y-122732925D02*
X74633026Y-122875782D01*
X74633026Y-122875782D02*
X74633026Y-122971020D01*
X74633026Y-122971020D02*
X74680645Y-123113877D01*
X74680645Y-123113877D02*
X74728264Y-123161496D01*
X74728264Y-123542449D02*
X74680645Y-123590068D01*
X74680645Y-123590068D02*
X74633026Y-123685306D01*
X74633026Y-123685306D02*
X74633026Y-123923401D01*
X74633026Y-123923401D02*
X74680645Y-124018639D01*
X74680645Y-124018639D02*
X74728264Y-124066258D01*
X74728264Y-124066258D02*
X74823502Y-124113877D01*
X74823502Y-124113877D02*
X74918740Y-124113877D01*
X74918740Y-124113877D02*
X75061597Y-124066258D01*
X75061597Y-124066258D02*
X75633026Y-123494830D01*
X75633026Y-123494830D02*
X75633026Y-124113877D01*
X74633026Y-124732925D02*
X74633026Y-124828163D01*
X74633026Y-124828163D02*
X74680645Y-124923401D01*
X74680645Y-124923401D02*
X74728264Y-124971020D01*
X74728264Y-124971020D02*
X74823502Y-125018639D01*
X74823502Y-125018639D02*
X75013978Y-125066258D01*
X75013978Y-125066258D02*
X75252073Y-125066258D01*
X75252073Y-125066258D02*
X75442549Y-125018639D01*
X75442549Y-125018639D02*
X75537787Y-124971020D01*
X75537787Y-124971020D02*
X75585407Y-124923401D01*
X75585407Y-124923401D02*
X75633026Y-124828163D01*
X75633026Y-124828163D02*
X75633026Y-124732925D01*
X75633026Y-124732925D02*
X75585407Y-124637687D01*
X75585407Y-124637687D02*
X75537787Y-124590068D01*
X75537787Y-124590068D02*
X75442549Y-124542449D01*
X75442549Y-124542449D02*
X75252073Y-124494830D01*
X75252073Y-124494830D02*
X75013978Y-124494830D01*
X75013978Y-124494830D02*
X74823502Y-124542449D01*
X74823502Y-124542449D02*
X74728264Y-124590068D01*
X74728264Y-124590068D02*
X74680645Y-124637687D01*
X74680645Y-124637687D02*
X74633026Y-124732925D01*
X74633026Y-125971020D02*
X74633026Y-125494830D01*
X74633026Y-125494830D02*
X75109216Y-125447211D01*
X75109216Y-125447211D02*
X75061597Y-125494830D01*
X75061597Y-125494830D02*
X75013978Y-125590068D01*
X75013978Y-125590068D02*
X75013978Y-125828163D01*
X75013978Y-125828163D02*
X75061597Y-125923401D01*
X75061597Y-125923401D02*
X75109216Y-125971020D01*
X75109216Y-125971020D02*
X75204454Y-126018639D01*
X75204454Y-126018639D02*
X75442549Y-126018639D01*
X75442549Y-126018639D02*
X75537787Y-125971020D01*
X75537787Y-125971020D02*
X75585407Y-125923401D01*
X75585407Y-125923401D02*
X75633026Y-125828163D01*
X75633026Y-125828163D02*
X75633026Y-125590068D01*
X75633026Y-125590068D02*
X75585407Y-125494830D01*
X75585407Y-125494830D02*
X75537787Y-125447211D01*
X83559787Y-91696346D02*
X83607407Y-91648727D01*
X83607407Y-91648727D02*
X83655026Y-91505870D01*
X83655026Y-91505870D02*
X83655026Y-91410632D01*
X83655026Y-91410632D02*
X83607407Y-91267775D01*
X83607407Y-91267775D02*
X83512168Y-91172537D01*
X83512168Y-91172537D02*
X83416930Y-91124918D01*
X83416930Y-91124918D02*
X83226454Y-91077299D01*
X83226454Y-91077299D02*
X83083597Y-91077299D01*
X83083597Y-91077299D02*
X82893121Y-91124918D01*
X82893121Y-91124918D02*
X82797883Y-91172537D01*
X82797883Y-91172537D02*
X82702645Y-91267775D01*
X82702645Y-91267775D02*
X82655026Y-91410632D01*
X82655026Y-91410632D02*
X82655026Y-91505870D01*
X82655026Y-91505870D02*
X82702645Y-91648727D01*
X82702645Y-91648727D02*
X82750264Y-91696346D01*
X82988359Y-92553489D02*
X83655026Y-92553489D01*
X82607407Y-92315394D02*
X83321692Y-92077299D01*
X83321692Y-92077299D02*
X83321692Y-92696346D01*
X82655026Y-93267775D02*
X82655026Y-93363013D01*
X82655026Y-93363013D02*
X82702645Y-93458251D01*
X82702645Y-93458251D02*
X82750264Y-93505870D01*
X82750264Y-93505870D02*
X82845502Y-93553489D01*
X82845502Y-93553489D02*
X83035978Y-93601108D01*
X83035978Y-93601108D02*
X83274073Y-93601108D01*
X83274073Y-93601108D02*
X83464549Y-93553489D01*
X83464549Y-93553489D02*
X83559787Y-93505870D01*
X83559787Y-93505870D02*
X83607407Y-93458251D01*
X83607407Y-93458251D02*
X83655026Y-93363013D01*
X83655026Y-93363013D02*
X83655026Y-93267775D01*
X83655026Y-93267775D02*
X83607407Y-93172537D01*
X83607407Y-93172537D02*
X83559787Y-93124918D01*
X83559787Y-93124918D02*
X83464549Y-93077299D01*
X83464549Y-93077299D02*
X83274073Y-93029680D01*
X83274073Y-93029680D02*
X83035978Y-93029680D01*
X83035978Y-93029680D02*
X82845502Y-93077299D01*
X82845502Y-93077299D02*
X82750264Y-93124918D01*
X82750264Y-93124918D02*
X82702645Y-93172537D01*
X82702645Y-93172537D02*
X82655026Y-93267775D01*
X83655026Y-94553489D02*
X83655026Y-93982061D01*
X83655026Y-94267775D02*
X82655026Y-94267775D01*
X82655026Y-94267775D02*
X82797883Y-94172537D01*
X82797883Y-94172537D02*
X82893121Y-94077299D01*
X82893121Y-94077299D02*
X82940740Y-93982061D01*
X83784787Y-106309496D02*
X83832407Y-106261877D01*
X83832407Y-106261877D02*
X83880026Y-106119020D01*
X83880026Y-106119020D02*
X83880026Y-106023782D01*
X83880026Y-106023782D02*
X83832407Y-105880925D01*
X83832407Y-105880925D02*
X83737168Y-105785687D01*
X83737168Y-105785687D02*
X83641930Y-105738068D01*
X83641930Y-105738068D02*
X83451454Y-105690449D01*
X83451454Y-105690449D02*
X83308597Y-105690449D01*
X83308597Y-105690449D02*
X83118121Y-105738068D01*
X83118121Y-105738068D02*
X83022883Y-105785687D01*
X83022883Y-105785687D02*
X82927645Y-105880925D01*
X82927645Y-105880925D02*
X82880026Y-106023782D01*
X82880026Y-106023782D02*
X82880026Y-106119020D01*
X82880026Y-106119020D02*
X82927645Y-106261877D01*
X82927645Y-106261877D02*
X82975264Y-106309496D01*
X82880026Y-106642830D02*
X82880026Y-107261877D01*
X82880026Y-107261877D02*
X83260978Y-106928544D01*
X83260978Y-106928544D02*
X83260978Y-107071401D01*
X83260978Y-107071401D02*
X83308597Y-107166639D01*
X83308597Y-107166639D02*
X83356216Y-107214258D01*
X83356216Y-107214258D02*
X83451454Y-107261877D01*
X83451454Y-107261877D02*
X83689549Y-107261877D01*
X83689549Y-107261877D02*
X83784787Y-107214258D01*
X83784787Y-107214258D02*
X83832407Y-107166639D01*
X83832407Y-107166639D02*
X83880026Y-107071401D01*
X83880026Y-107071401D02*
X83880026Y-106785687D01*
X83880026Y-106785687D02*
X83832407Y-106690449D01*
X83832407Y-106690449D02*
X83784787Y-106642830D01*
X82880026Y-107880925D02*
X82880026Y-107976163D01*
X82880026Y-107976163D02*
X82927645Y-108071401D01*
X82927645Y-108071401D02*
X82975264Y-108119020D01*
X82975264Y-108119020D02*
X83070502Y-108166639D01*
X83070502Y-108166639D02*
X83260978Y-108214258D01*
X83260978Y-108214258D02*
X83499073Y-108214258D01*
X83499073Y-108214258D02*
X83689549Y-108166639D01*
X83689549Y-108166639D02*
X83784787Y-108119020D01*
X83784787Y-108119020D02*
X83832407Y-108071401D01*
X83832407Y-108071401D02*
X83880026Y-107976163D01*
X83880026Y-107976163D02*
X83880026Y-107880925D01*
X83880026Y-107880925D02*
X83832407Y-107785687D01*
X83832407Y-107785687D02*
X83784787Y-107738068D01*
X83784787Y-107738068D02*
X83689549Y-107690449D01*
X83689549Y-107690449D02*
X83499073Y-107642830D01*
X83499073Y-107642830D02*
X83260978Y-107642830D01*
X83260978Y-107642830D02*
X83070502Y-107690449D01*
X83070502Y-107690449D02*
X82975264Y-107738068D01*
X82975264Y-107738068D02*
X82927645Y-107785687D01*
X82927645Y-107785687D02*
X82880026Y-107880925D01*
X83880026Y-109166639D02*
X83880026Y-108595211D01*
X83880026Y-108880925D02*
X82880026Y-108880925D01*
X82880026Y-108880925D02*
X83022883Y-108785687D01*
X83022883Y-108785687D02*
X83118121Y-108690449D01*
X83118121Y-108690449D02*
X83165740Y-108595211D01*
X59210264Y-106380924D02*
X59162645Y-106285686D01*
X59162645Y-106285686D02*
X59067407Y-106190448D01*
X59067407Y-106190448D02*
X58924549Y-106047591D01*
X58924549Y-106047591D02*
X58876930Y-105952353D01*
X58876930Y-105952353D02*
X58876930Y-105857115D01*
X59115026Y-105904734D02*
X59067407Y-105809496D01*
X59067407Y-105809496D02*
X58972168Y-105714258D01*
X58972168Y-105714258D02*
X58781692Y-105666639D01*
X58781692Y-105666639D02*
X58448359Y-105666639D01*
X58448359Y-105666639D02*
X58257883Y-105714258D01*
X58257883Y-105714258D02*
X58162645Y-105809496D01*
X58162645Y-105809496D02*
X58115026Y-105904734D01*
X58115026Y-105904734D02*
X58115026Y-106095210D01*
X58115026Y-106095210D02*
X58162645Y-106190448D01*
X58162645Y-106190448D02*
X58257883Y-106285686D01*
X58257883Y-106285686D02*
X58448359Y-106333305D01*
X58448359Y-106333305D02*
X58781692Y-106333305D01*
X58781692Y-106333305D02*
X58972168Y-106285686D01*
X58972168Y-106285686D02*
X59067407Y-106190448D01*
X59067407Y-106190448D02*
X59115026Y-106095210D01*
X59115026Y-106095210D02*
X59115026Y-105904734D01*
X58115026Y-106666639D02*
X58115026Y-107285686D01*
X58115026Y-107285686D02*
X58495978Y-106952353D01*
X58495978Y-106952353D02*
X58495978Y-107095210D01*
X58495978Y-107095210D02*
X58543597Y-107190448D01*
X58543597Y-107190448D02*
X58591216Y-107238067D01*
X58591216Y-107238067D02*
X58686454Y-107285686D01*
X58686454Y-107285686D02*
X58924549Y-107285686D01*
X58924549Y-107285686D02*
X59019787Y-107238067D01*
X59019787Y-107238067D02*
X59067407Y-107190448D01*
X59067407Y-107190448D02*
X59115026Y-107095210D01*
X59115026Y-107095210D02*
X59115026Y-106809496D01*
X59115026Y-106809496D02*
X59067407Y-106714258D01*
X59067407Y-106714258D02*
X59019787Y-106666639D01*
X58115026Y-107904734D02*
X58115026Y-107999972D01*
X58115026Y-107999972D02*
X58162645Y-108095210D01*
X58162645Y-108095210D02*
X58210264Y-108142829D01*
X58210264Y-108142829D02*
X58305502Y-108190448D01*
X58305502Y-108190448D02*
X58495978Y-108238067D01*
X58495978Y-108238067D02*
X58734073Y-108238067D01*
X58734073Y-108238067D02*
X58924549Y-108190448D01*
X58924549Y-108190448D02*
X59019787Y-108142829D01*
X59019787Y-108142829D02*
X59067407Y-108095210D01*
X59067407Y-108095210D02*
X59115026Y-107999972D01*
X59115026Y-107999972D02*
X59115026Y-107904734D01*
X59115026Y-107904734D02*
X59067407Y-107809496D01*
X59067407Y-107809496D02*
X59019787Y-107761877D01*
X59019787Y-107761877D02*
X58924549Y-107714258D01*
X58924549Y-107714258D02*
X58734073Y-107666639D01*
X58734073Y-107666639D02*
X58495978Y-107666639D01*
X58495978Y-107666639D02*
X58305502Y-107714258D01*
X58305502Y-107714258D02*
X58210264Y-107761877D01*
X58210264Y-107761877D02*
X58162645Y-107809496D01*
X58162645Y-107809496D02*
X58115026Y-107904734D01*
X58210264Y-108619020D02*
X58162645Y-108666639D01*
X58162645Y-108666639D02*
X58115026Y-108761877D01*
X58115026Y-108761877D02*
X58115026Y-108999972D01*
X58115026Y-108999972D02*
X58162645Y-109095210D01*
X58162645Y-109095210D02*
X58210264Y-109142829D01*
X58210264Y-109142829D02*
X58305502Y-109190448D01*
X58305502Y-109190448D02*
X58400740Y-109190448D01*
X58400740Y-109190448D02*
X58543597Y-109142829D01*
X58543597Y-109142829D02*
X59115026Y-108571401D01*
X59115026Y-108571401D02*
X59115026Y-109190448D01*
D11*
X67243825Y-123864391D02*
X67377158Y-123673915D01*
X67472396Y-123864391D02*
X67472396Y-123464391D01*
X67472396Y-123464391D02*
X67320015Y-123464391D01*
X67320015Y-123464391D02*
X67281920Y-123483439D01*
X67281920Y-123483439D02*
X67262873Y-123502486D01*
X67262873Y-123502486D02*
X67243825Y-123540582D01*
X67243825Y-123540582D02*
X67243825Y-123597724D01*
X67243825Y-123597724D02*
X67262873Y-123635820D01*
X67262873Y-123635820D02*
X67281920Y-123654867D01*
X67281920Y-123654867D02*
X67320015Y-123673915D01*
X67320015Y-123673915D02*
X67472396Y-123673915D01*
X67091444Y-123502486D02*
X67072396Y-123483439D01*
X67072396Y-123483439D02*
X67034301Y-123464391D01*
X67034301Y-123464391D02*
X66939063Y-123464391D01*
X66939063Y-123464391D02*
X66900968Y-123483439D01*
X66900968Y-123483439D02*
X66881920Y-123502486D01*
X66881920Y-123502486D02*
X66862873Y-123540582D01*
X66862873Y-123540582D02*
X66862873Y-123578677D01*
X66862873Y-123578677D02*
X66881920Y-123635820D01*
X66881920Y-123635820D02*
X67110492Y-123864391D01*
X67110492Y-123864391D02*
X66862873Y-123864391D01*
X66615254Y-123464391D02*
X66577159Y-123464391D01*
X66577159Y-123464391D02*
X66539063Y-123483439D01*
X66539063Y-123483439D02*
X66520016Y-123502486D01*
X66520016Y-123502486D02*
X66500968Y-123540582D01*
X66500968Y-123540582D02*
X66481921Y-123616772D01*
X66481921Y-123616772D02*
X66481921Y-123712010D01*
X66481921Y-123712010D02*
X66500968Y-123788201D01*
X66500968Y-123788201D02*
X66520016Y-123826296D01*
X66520016Y-123826296D02*
X66539063Y-123845344D01*
X66539063Y-123845344D02*
X66577159Y-123864391D01*
X66577159Y-123864391D02*
X66615254Y-123864391D01*
X66615254Y-123864391D02*
X66653349Y-123845344D01*
X66653349Y-123845344D02*
X66672397Y-123826296D01*
X66672397Y-123826296D02*
X66691444Y-123788201D01*
X66691444Y-123788201D02*
X66710492Y-123712010D01*
X66710492Y-123712010D02*
X66710492Y-123616772D01*
X66710492Y-123616772D02*
X66691444Y-123540582D01*
X66691444Y-123540582D02*
X66672397Y-123502486D01*
X66672397Y-123502486D02*
X66653349Y-123483439D01*
X66653349Y-123483439D02*
X66615254Y-123464391D01*
X66329540Y-123502486D02*
X66310492Y-123483439D01*
X66310492Y-123483439D02*
X66272397Y-123464391D01*
X66272397Y-123464391D02*
X66177159Y-123464391D01*
X66177159Y-123464391D02*
X66139064Y-123483439D01*
X66139064Y-123483439D02*
X66120016Y-123502486D01*
X66120016Y-123502486D02*
X66100969Y-123540582D01*
X66100969Y-123540582D02*
X66100969Y-123578677D01*
X66100969Y-123578677D02*
X66120016Y-123635820D01*
X66120016Y-123635820D02*
X66348588Y-123864391D01*
X66348588Y-123864391D02*
X66100969Y-123864391D01*
D10*
X49365254Y-108391363D02*
X49698587Y-107915172D01*
X49936682Y-108391363D02*
X49936682Y-107391363D01*
X49936682Y-107391363D02*
X49555730Y-107391363D01*
X49555730Y-107391363D02*
X49460492Y-107438982D01*
X49460492Y-107438982D02*
X49412873Y-107486601D01*
X49412873Y-107486601D02*
X49365254Y-107581839D01*
X49365254Y-107581839D02*
X49365254Y-107724696D01*
X49365254Y-107724696D02*
X49412873Y-107819934D01*
X49412873Y-107819934D02*
X49460492Y-107867553D01*
X49460492Y-107867553D02*
X49555730Y-107915172D01*
X49555730Y-107915172D02*
X49936682Y-107915172D01*
X48412873Y-108391363D02*
X48984301Y-108391363D01*
X48698587Y-108391363D02*
X48698587Y-107391363D01*
X48698587Y-107391363D02*
X48793825Y-107534220D01*
X48793825Y-107534220D02*
X48889063Y-107629458D01*
X48889063Y-107629458D02*
X48984301Y-107677077D01*
X47460492Y-108391363D02*
X48031920Y-108391363D01*
X47746206Y-108391363D02*
X47746206Y-107391363D01*
X47746206Y-107391363D02*
X47841444Y-107534220D01*
X47841444Y-107534220D02*
X47936682Y-107629458D01*
X47936682Y-107629458D02*
X48031920Y-107677077D01*
X47127158Y-107391363D02*
X46508111Y-107391363D01*
X46508111Y-107391363D02*
X46841444Y-107772315D01*
X46841444Y-107772315D02*
X46698587Y-107772315D01*
X46698587Y-107772315D02*
X46603349Y-107819934D01*
X46603349Y-107819934D02*
X46555730Y-107867553D01*
X46555730Y-107867553D02*
X46508111Y-107962791D01*
X46508111Y-107962791D02*
X46508111Y-108200886D01*
X46508111Y-108200886D02*
X46555730Y-108296124D01*
X46555730Y-108296124D02*
X46603349Y-108343744D01*
X46603349Y-108343744D02*
X46698587Y-108391363D01*
X46698587Y-108391363D02*
X46984301Y-108391363D01*
X46984301Y-108391363D02*
X47079539Y-108343744D01*
X47079539Y-108343744D02*
X47127158Y-108296124D01*
X76674026Y-89721496D02*
X76197835Y-89388163D01*
X76674026Y-89150068D02*
X75674026Y-89150068D01*
X75674026Y-89150068D02*
X75674026Y-89531020D01*
X75674026Y-89531020D02*
X75721645Y-89626258D01*
X75721645Y-89626258D02*
X75769264Y-89673877D01*
X75769264Y-89673877D02*
X75864502Y-89721496D01*
X75864502Y-89721496D02*
X76007359Y-89721496D01*
X76007359Y-89721496D02*
X76102597Y-89673877D01*
X76102597Y-89673877D02*
X76150216Y-89626258D01*
X76150216Y-89626258D02*
X76197835Y-89531020D01*
X76197835Y-89531020D02*
X76197835Y-89150068D01*
X76007359Y-90578639D02*
X76674026Y-90578639D01*
X75626407Y-90340544D02*
X76340692Y-90102449D01*
X76340692Y-90102449D02*
X76340692Y-90721496D01*
X75674026Y-91292925D02*
X75674026Y-91388163D01*
X75674026Y-91388163D02*
X75721645Y-91483401D01*
X75721645Y-91483401D02*
X75769264Y-91531020D01*
X75769264Y-91531020D02*
X75864502Y-91578639D01*
X75864502Y-91578639D02*
X76054978Y-91626258D01*
X76054978Y-91626258D02*
X76293073Y-91626258D01*
X76293073Y-91626258D02*
X76483549Y-91578639D01*
X76483549Y-91578639D02*
X76578787Y-91531020D01*
X76578787Y-91531020D02*
X76626407Y-91483401D01*
X76626407Y-91483401D02*
X76674026Y-91388163D01*
X76674026Y-91388163D02*
X76674026Y-91292925D01*
X76674026Y-91292925D02*
X76626407Y-91197687D01*
X76626407Y-91197687D02*
X76578787Y-91150068D01*
X76578787Y-91150068D02*
X76483549Y-91102449D01*
X76483549Y-91102449D02*
X76293073Y-91054830D01*
X76293073Y-91054830D02*
X76054978Y-91054830D01*
X76054978Y-91054830D02*
X75864502Y-91102449D01*
X75864502Y-91102449D02*
X75769264Y-91150068D01*
X75769264Y-91150068D02*
X75721645Y-91197687D01*
X75721645Y-91197687D02*
X75674026Y-91292925D01*
X75674026Y-91959592D02*
X75674026Y-92578639D01*
X75674026Y-92578639D02*
X76054978Y-92245306D01*
X76054978Y-92245306D02*
X76054978Y-92388163D01*
X76054978Y-92388163D02*
X76102597Y-92483401D01*
X76102597Y-92483401D02*
X76150216Y-92531020D01*
X76150216Y-92531020D02*
X76245454Y-92578639D01*
X76245454Y-92578639D02*
X76483549Y-92578639D01*
X76483549Y-92578639D02*
X76578787Y-92531020D01*
X76578787Y-92531020D02*
X76626407Y-92483401D01*
X76626407Y-92483401D02*
X76674026Y-92388163D01*
X76674026Y-92388163D02*
X76674026Y-92102449D01*
X76674026Y-92102449D02*
X76626407Y-92007211D01*
X76626407Y-92007211D02*
X76578787Y-91959592D01*
X76895026Y-104277496D02*
X76418835Y-103944163D01*
X76895026Y-103706068D02*
X75895026Y-103706068D01*
X75895026Y-103706068D02*
X75895026Y-104087020D01*
X75895026Y-104087020D02*
X75942645Y-104182258D01*
X75942645Y-104182258D02*
X75990264Y-104229877D01*
X75990264Y-104229877D02*
X76085502Y-104277496D01*
X76085502Y-104277496D02*
X76228359Y-104277496D01*
X76228359Y-104277496D02*
X76323597Y-104229877D01*
X76323597Y-104229877D02*
X76371216Y-104182258D01*
X76371216Y-104182258D02*
X76418835Y-104087020D01*
X76418835Y-104087020D02*
X76418835Y-103706068D01*
X75895026Y-104610830D02*
X75895026Y-105229877D01*
X75895026Y-105229877D02*
X76275978Y-104896544D01*
X76275978Y-104896544D02*
X76275978Y-105039401D01*
X76275978Y-105039401D02*
X76323597Y-105134639D01*
X76323597Y-105134639D02*
X76371216Y-105182258D01*
X76371216Y-105182258D02*
X76466454Y-105229877D01*
X76466454Y-105229877D02*
X76704549Y-105229877D01*
X76704549Y-105229877D02*
X76799787Y-105182258D01*
X76799787Y-105182258D02*
X76847407Y-105134639D01*
X76847407Y-105134639D02*
X76895026Y-105039401D01*
X76895026Y-105039401D02*
X76895026Y-104753687D01*
X76895026Y-104753687D02*
X76847407Y-104658449D01*
X76847407Y-104658449D02*
X76799787Y-104610830D01*
X75895026Y-105848925D02*
X75895026Y-105944163D01*
X75895026Y-105944163D02*
X75942645Y-106039401D01*
X75942645Y-106039401D02*
X75990264Y-106087020D01*
X75990264Y-106087020D02*
X76085502Y-106134639D01*
X76085502Y-106134639D02*
X76275978Y-106182258D01*
X76275978Y-106182258D02*
X76514073Y-106182258D01*
X76514073Y-106182258D02*
X76704549Y-106134639D01*
X76704549Y-106134639D02*
X76799787Y-106087020D01*
X76799787Y-106087020D02*
X76847407Y-106039401D01*
X76847407Y-106039401D02*
X76895026Y-105944163D01*
X76895026Y-105944163D02*
X76895026Y-105848925D01*
X76895026Y-105848925D02*
X76847407Y-105753687D01*
X76847407Y-105753687D02*
X76799787Y-105706068D01*
X76799787Y-105706068D02*
X76704549Y-105658449D01*
X76704549Y-105658449D02*
X76514073Y-105610830D01*
X76514073Y-105610830D02*
X76275978Y-105610830D01*
X76275978Y-105610830D02*
X76085502Y-105658449D01*
X76085502Y-105658449D02*
X75990264Y-105706068D01*
X75990264Y-105706068D02*
X75942645Y-105753687D01*
X75942645Y-105753687D02*
X75895026Y-105848925D01*
X75895026Y-106515592D02*
X75895026Y-107134639D01*
X75895026Y-107134639D02*
X76275978Y-106801306D01*
X76275978Y-106801306D02*
X76275978Y-106944163D01*
X76275978Y-106944163D02*
X76323597Y-107039401D01*
X76323597Y-107039401D02*
X76371216Y-107087020D01*
X76371216Y-107087020D02*
X76466454Y-107134639D01*
X76466454Y-107134639D02*
X76704549Y-107134639D01*
X76704549Y-107134639D02*
X76799787Y-107087020D01*
X76799787Y-107087020D02*
X76847407Y-107039401D01*
X76847407Y-107039401D02*
X76895026Y-106944163D01*
X76895026Y-106944163D02*
X76895026Y-106658449D01*
X76895026Y-106658449D02*
X76847407Y-106563211D01*
X76847407Y-106563211D02*
X76799787Y-106515592D01*
X49365254Y-106740363D02*
X49698587Y-106264172D01*
X49936682Y-106740363D02*
X49936682Y-105740363D01*
X49936682Y-105740363D02*
X49555730Y-105740363D01*
X49555730Y-105740363D02*
X49460492Y-105787982D01*
X49460492Y-105787982D02*
X49412873Y-105835601D01*
X49412873Y-105835601D02*
X49365254Y-105930839D01*
X49365254Y-105930839D02*
X49365254Y-106073696D01*
X49365254Y-106073696D02*
X49412873Y-106168934D01*
X49412873Y-106168934D02*
X49460492Y-106216553D01*
X49460492Y-106216553D02*
X49555730Y-106264172D01*
X49555730Y-106264172D02*
X49936682Y-106264172D01*
X48412873Y-106740363D02*
X48984301Y-106740363D01*
X48698587Y-106740363D02*
X48698587Y-105740363D01*
X48698587Y-105740363D02*
X48793825Y-105883220D01*
X48793825Y-105883220D02*
X48889063Y-105978458D01*
X48889063Y-105978458D02*
X48984301Y-106026077D01*
X47460492Y-106740363D02*
X48031920Y-106740363D01*
X47746206Y-106740363D02*
X47746206Y-105740363D01*
X47746206Y-105740363D02*
X47841444Y-105883220D01*
X47841444Y-105883220D02*
X47936682Y-105978458D01*
X47936682Y-105978458D02*
X48031920Y-106026077D01*
X46603349Y-106073696D02*
X46603349Y-106740363D01*
X46841444Y-105692744D02*
X47079539Y-106407029D01*
X47079539Y-106407029D02*
X46460492Y-106407029D01*
X75174187Y-108849496D02*
X75221807Y-108801877D01*
X75221807Y-108801877D02*
X75269426Y-108659020D01*
X75269426Y-108659020D02*
X75269426Y-108563782D01*
X75269426Y-108563782D02*
X75221807Y-108420925D01*
X75221807Y-108420925D02*
X75126568Y-108325687D01*
X75126568Y-108325687D02*
X75031330Y-108278068D01*
X75031330Y-108278068D02*
X74840854Y-108230449D01*
X74840854Y-108230449D02*
X74697997Y-108230449D01*
X74697997Y-108230449D02*
X74507521Y-108278068D01*
X74507521Y-108278068D02*
X74412283Y-108325687D01*
X74412283Y-108325687D02*
X74317045Y-108420925D01*
X74317045Y-108420925D02*
X74269426Y-108563782D01*
X74269426Y-108563782D02*
X74269426Y-108659020D01*
X74269426Y-108659020D02*
X74317045Y-108801877D01*
X74317045Y-108801877D02*
X74364664Y-108849496D01*
X74269426Y-109182830D02*
X74269426Y-109801877D01*
X74269426Y-109801877D02*
X74650378Y-109468544D01*
X74650378Y-109468544D02*
X74650378Y-109611401D01*
X74650378Y-109611401D02*
X74697997Y-109706639D01*
X74697997Y-109706639D02*
X74745616Y-109754258D01*
X74745616Y-109754258D02*
X74840854Y-109801877D01*
X74840854Y-109801877D02*
X75078949Y-109801877D01*
X75078949Y-109801877D02*
X75174187Y-109754258D01*
X75174187Y-109754258D02*
X75221807Y-109706639D01*
X75221807Y-109706639D02*
X75269426Y-109611401D01*
X75269426Y-109611401D02*
X75269426Y-109325687D01*
X75269426Y-109325687D02*
X75221807Y-109230449D01*
X75221807Y-109230449D02*
X75174187Y-109182830D01*
X74269426Y-110420925D02*
X74269426Y-110516163D01*
X74269426Y-110516163D02*
X74317045Y-110611401D01*
X74317045Y-110611401D02*
X74364664Y-110659020D01*
X74364664Y-110659020D02*
X74459902Y-110706639D01*
X74459902Y-110706639D02*
X74650378Y-110754258D01*
X74650378Y-110754258D02*
X74888473Y-110754258D01*
X74888473Y-110754258D02*
X75078949Y-110706639D01*
X75078949Y-110706639D02*
X75174187Y-110659020D01*
X75174187Y-110659020D02*
X75221807Y-110611401D01*
X75221807Y-110611401D02*
X75269426Y-110516163D01*
X75269426Y-110516163D02*
X75269426Y-110420925D01*
X75269426Y-110420925D02*
X75221807Y-110325687D01*
X75221807Y-110325687D02*
X75174187Y-110278068D01*
X75174187Y-110278068D02*
X75078949Y-110230449D01*
X75078949Y-110230449D02*
X74888473Y-110182830D01*
X74888473Y-110182830D02*
X74650378Y-110182830D01*
X74650378Y-110182830D02*
X74459902Y-110230449D01*
X74459902Y-110230449D02*
X74364664Y-110278068D01*
X74364664Y-110278068D02*
X74317045Y-110325687D01*
X74317045Y-110325687D02*
X74269426Y-110420925D01*
X74269426Y-111659020D02*
X74269426Y-111182830D01*
X74269426Y-111182830D02*
X74745616Y-111135211D01*
X74745616Y-111135211D02*
X74697997Y-111182830D01*
X74697997Y-111182830D02*
X74650378Y-111278068D01*
X74650378Y-111278068D02*
X74650378Y-111516163D01*
X74650378Y-111516163D02*
X74697997Y-111611401D01*
X74697997Y-111611401D02*
X74745616Y-111659020D01*
X74745616Y-111659020D02*
X74840854Y-111706639D01*
X74840854Y-111706639D02*
X75078949Y-111706639D01*
X75078949Y-111706639D02*
X75174187Y-111659020D01*
X75174187Y-111659020D02*
X75221807Y-111611401D01*
X75221807Y-111611401D02*
X75269426Y-111516163D01*
X75269426Y-111516163D02*
X75269426Y-111278068D01*
X75269426Y-111278068D02*
X75221807Y-111182830D01*
X75221807Y-111182830D02*
X75174187Y-111135211D01*
X59268264Y-120565924D02*
X59220645Y-120470686D01*
X59220645Y-120470686D02*
X59125407Y-120375448D01*
X59125407Y-120375448D02*
X58982549Y-120232591D01*
X58982549Y-120232591D02*
X58934930Y-120137353D01*
X58934930Y-120137353D02*
X58934930Y-120042115D01*
X59173026Y-120089734D02*
X59125407Y-119994496D01*
X59125407Y-119994496D02*
X59030168Y-119899258D01*
X59030168Y-119899258D02*
X58839692Y-119851639D01*
X58839692Y-119851639D02*
X58506359Y-119851639D01*
X58506359Y-119851639D02*
X58315883Y-119899258D01*
X58315883Y-119899258D02*
X58220645Y-119994496D01*
X58220645Y-119994496D02*
X58173026Y-120089734D01*
X58173026Y-120089734D02*
X58173026Y-120280210D01*
X58173026Y-120280210D02*
X58220645Y-120375448D01*
X58220645Y-120375448D02*
X58315883Y-120470686D01*
X58315883Y-120470686D02*
X58506359Y-120518305D01*
X58506359Y-120518305D02*
X58839692Y-120518305D01*
X58839692Y-120518305D02*
X59030168Y-120470686D01*
X59030168Y-120470686D02*
X59125407Y-120375448D01*
X59125407Y-120375448D02*
X59173026Y-120280210D01*
X59173026Y-120280210D02*
X59173026Y-120089734D01*
X58268264Y-120899258D02*
X58220645Y-120946877D01*
X58220645Y-120946877D02*
X58173026Y-121042115D01*
X58173026Y-121042115D02*
X58173026Y-121280210D01*
X58173026Y-121280210D02*
X58220645Y-121375448D01*
X58220645Y-121375448D02*
X58268264Y-121423067D01*
X58268264Y-121423067D02*
X58363502Y-121470686D01*
X58363502Y-121470686D02*
X58458740Y-121470686D01*
X58458740Y-121470686D02*
X58601597Y-121423067D01*
X58601597Y-121423067D02*
X59173026Y-120851639D01*
X59173026Y-120851639D02*
X59173026Y-121470686D01*
X58173026Y-122089734D02*
X58173026Y-122184972D01*
X58173026Y-122184972D02*
X58220645Y-122280210D01*
X58220645Y-122280210D02*
X58268264Y-122327829D01*
X58268264Y-122327829D02*
X58363502Y-122375448D01*
X58363502Y-122375448D02*
X58553978Y-122423067D01*
X58553978Y-122423067D02*
X58792073Y-122423067D01*
X58792073Y-122423067D02*
X58982549Y-122375448D01*
X58982549Y-122375448D02*
X59077787Y-122327829D01*
X59077787Y-122327829D02*
X59125407Y-122280210D01*
X59125407Y-122280210D02*
X59173026Y-122184972D01*
X59173026Y-122184972D02*
X59173026Y-122089734D01*
X59173026Y-122089734D02*
X59125407Y-121994496D01*
X59125407Y-121994496D02*
X59077787Y-121946877D01*
X59077787Y-121946877D02*
X58982549Y-121899258D01*
X58982549Y-121899258D02*
X58792073Y-121851639D01*
X58792073Y-121851639D02*
X58553978Y-121851639D01*
X58553978Y-121851639D02*
X58363502Y-121899258D01*
X58363502Y-121899258D02*
X58268264Y-121946877D01*
X58268264Y-121946877D02*
X58220645Y-121994496D01*
X58220645Y-121994496D02*
X58173026Y-122089734D01*
X58268264Y-122804020D02*
X58220645Y-122851639D01*
X58220645Y-122851639D02*
X58173026Y-122946877D01*
X58173026Y-122946877D02*
X58173026Y-123184972D01*
X58173026Y-123184972D02*
X58220645Y-123280210D01*
X58220645Y-123280210D02*
X58268264Y-123327829D01*
X58268264Y-123327829D02*
X58363502Y-123375448D01*
X58363502Y-123375448D02*
X58458740Y-123375448D01*
X58458740Y-123375448D02*
X58601597Y-123327829D01*
X58601597Y-123327829D02*
X59173026Y-122756401D01*
X59173026Y-122756401D02*
X59173026Y-123375448D01*
D12*
%TO.C,U302*%
X69585209Y-108230544D02*
X70360211Y-108230544D01*
X68360207Y-111330542D02*
X70335207Y-111330542D01*
%TO.C,U202*%
X69825208Y-122476545D02*
X70600210Y-122476545D01*
X68600206Y-125576543D02*
X70575206Y-125576543D01*
%TO.C,U402*%
X68222207Y-96581543D02*
X70197207Y-96581543D01*
X69447209Y-93481545D02*
X70222211Y-93481545D01*
D13*
%TO.C,Q402*%
X65801207Y-94230544D02*
X65801207Y-94580544D01*
X59681207Y-94580544D02*
X65801207Y-94580544D01*
X59681207Y-94280544D02*
X59681207Y-94580544D01*
X59681207Y-89510544D02*
X59681207Y-89210544D01*
X59681207Y-89210544D02*
X65801207Y-89210544D01*
%TO.C,R203*%
X69784643Y-117998544D02*
X74138771Y-117998544D01*
X69784643Y-121418544D02*
X74138771Y-121418544D01*
%TO.C,C201*%
X80998207Y-121894746D02*
X80998207Y-121372242D01*
X82468207Y-121894746D02*
X82468207Y-121372242D01*
%TO.C,R402*%
X66044707Y-96792802D02*
X66044707Y-96318286D01*
X67089707Y-96792802D02*
X67089707Y-96318286D01*
%TO.C,R110*%
X47977707Y-121698802D02*
X47977707Y-121224286D01*
X49022707Y-121698802D02*
X49022707Y-121224286D01*
%TO.C,R302*%
X66187707Y-111309802D02*
X66187707Y-110835286D01*
X67232707Y-111309802D02*
X67232707Y-110835286D01*
%TO.C,R112*%
X42643707Y-121698802D02*
X42643707Y-121224286D01*
X43688707Y-121698802D02*
X43688707Y-121224286D01*
%TO.C,R115*%
X51976465Y-104775294D02*
X51501949Y-104775294D01*
X51976465Y-103730294D02*
X51501949Y-103730294D01*
%TO.C,C405*%
X73935207Y-95144964D02*
X73935207Y-95426124D01*
X72915207Y-95144964D02*
X72915207Y-95426124D01*
%TO.C,C205*%
X74164207Y-124139964D02*
X74164207Y-124421124D01*
X73144207Y-124139964D02*
X73144207Y-124421124D01*
%TO.C,C401*%
X80785207Y-93076646D02*
X80785207Y-92554142D01*
X82255207Y-93076646D02*
X82255207Y-92554142D01*
%TO.C,C301*%
X80785207Y-107562796D02*
X80785207Y-107040292D01*
X82255207Y-107562796D02*
X82255207Y-107040292D01*
%TO.C,R108*%
X102263258Y-75198500D02*
X101788742Y-75198500D01*
X102263258Y-74153500D02*
X101788742Y-74153500D01*
%TO.C,R109*%
X102390258Y-79389500D02*
X101915742Y-79389500D01*
X102390258Y-78344500D02*
X101915742Y-78344500D01*
%TO.C,Q302*%
X66059207Y-108747544D02*
X66059207Y-109097544D01*
X59939207Y-109097544D02*
X66059207Y-109097544D01*
X59939207Y-108797544D02*
X59939207Y-109097544D01*
X59939207Y-104027544D02*
X59939207Y-103727544D01*
X59939207Y-103727544D02*
X66059207Y-103727544D01*
%TO.C,R202*%
X66273707Y-125406802D02*
X66273707Y-124932286D01*
X67318707Y-125406802D02*
X67318707Y-124932286D01*
%TO.C,R107*%
X102042742Y-70089500D02*
X102517258Y-70089500D01*
X102042742Y-71134500D02*
X102517258Y-71134500D01*
%TO.C,R111*%
X45310707Y-121671802D02*
X45310707Y-121197286D01*
X46355707Y-121671802D02*
X46355707Y-121197286D01*
%TO.C,R113*%
X51976465Y-108712294D02*
X51501949Y-108712294D01*
X51976465Y-107667294D02*
X51501949Y-107667294D01*
%TO.C,R403*%
X69343143Y-89257544D02*
X73697271Y-89257544D01*
X69343143Y-92677544D02*
X73697271Y-92677544D01*
%TO.C,R303*%
X69564143Y-103813544D02*
X73918271Y-103813544D01*
X69564143Y-107233544D02*
X73918271Y-107233544D01*
%TO.C,R114*%
X51976465Y-106710294D02*
X51501949Y-106710294D01*
X51976465Y-105665294D02*
X51501949Y-105665294D01*
%TO.C,C305*%
X73902207Y-109941964D02*
X73902207Y-110223124D01*
X72882207Y-109941964D02*
X72882207Y-110223124D01*
%TO.C,Q202*%
X66157207Y-122934344D02*
X66157207Y-123284344D01*
X60037207Y-123284344D02*
X66157207Y-123284344D01*
X60037207Y-122984344D02*
X60037207Y-123284344D01*
X60037207Y-118214344D02*
X60037207Y-117914344D01*
X60037207Y-117914344D02*
X66157207Y-117914344D01*
%TD*%
M02*
