%TF.GenerationSoftware,KiCad,Pcbnew,7.0.9*%
%TF.CreationDate,2023-12-30T21:06:32-05:00*%
%TF.ProjectId,esc,6573632e-6b69-4636-9164-5f7063625858,rev?*%
%TF.SameCoordinates,Original*%
%TF.FileFunction,Soldermask,Top*%
%TF.FilePolarity,Negative*%
%FSLAX46Y46*%
G04 Gerber Fmt 4.6, Leading zero omitted, Abs format (unit mm)*
G04 Created by KiCad (PCBNEW 7.0.9) date 2023-12-30 21:06:32*
%MOMM*%
%LPD*%
G01*
G04 APERTURE LIST*
G04 Aperture macros list*
%AMRoundRect*
0 Rectangle with rounded corners*
0 $1 Rounding radius*
0 $2 $3 $4 $5 $6 $7 $8 $9 X,Y pos of 4 corners*
0 Add a 4 corners polygon primitive as box body*
4,1,4,$2,$3,$4,$5,$6,$7,$8,$9,$2,$3,0*
0 Add four circle primitives for the rounded corners*
1,1,$1+$1,$2,$3*
1,1,$1+$1,$4,$5*
1,1,$1+$1,$6,$7*
1,1,$1+$1,$8,$9*
0 Add four rect primitives between the rounded corners*
20,1,$1+$1,$2,$3,$4,$5,0*
20,1,$1+$1,$4,$5,$6,$7,0*
20,1,$1+$1,$6,$7,$8,$9,0*
20,1,$1+$1,$8,$9,$2,$3,0*%
%AMFreePoly0*
4,1,17,2.675000,1.605000,1.875000,1.605000,1.875000,0.935000,2.675000,0.935000,2.675000,0.335000,1.875000,0.335000,1.875000,-0.335000,2.675000,-0.335000,2.675000,-0.935000,1.875000,-0.935000,1.875000,-1.605000,2.675000,-1.605000,2.675000,-2.205000,-1.875000,-2.205000,-1.875000,2.205000,2.675000,2.205000,2.675000,1.605000,2.675000,1.605000,$1*%
G04 Aperture macros list end*
%ADD10R,0.533400X1.460500*%
%ADD11R,0.558800X1.003300*%
%ADD12R,2.514600X3.251200*%
%ADD13R,2.300000X2.300000*%
%ADD14C,2.300000*%
%ADD15C,2.999999*%
%ADD16RoundRect,0.218750X0.256250X-0.218750X0.256250X0.218750X-0.256250X0.218750X-0.256250X-0.218750X0*%
%ADD17RoundRect,0.218750X0.218750X0.256250X-0.218750X0.256250X-0.218750X-0.256250X0.218750X-0.256250X0*%
%ADD18RoundRect,0.218750X-0.218750X-0.256250X0.218750X-0.256250X0.218750X0.256250X-0.218750X0.256250X0*%
%ADD19RoundRect,0.150000X0.150000X-0.512500X0.150000X0.512500X-0.150000X0.512500X-0.150000X-0.512500X0*%
%ADD20RoundRect,0.250000X-0.325000X-1.100000X0.325000X-1.100000X0.325000X1.100000X-0.325000X1.100000X0*%
%ADD21RoundRect,0.200000X-0.200000X-0.275000X0.200000X-0.275000X0.200000X0.275000X-0.200000X0.275000X0*%
%ADD22RoundRect,0.225000X-0.225000X-0.250000X0.225000X-0.250000X0.225000X0.250000X-0.225000X0.250000X0*%
%ADD23RoundRect,0.200000X-0.275000X0.200000X-0.275000X-0.200000X0.275000X-0.200000X0.275000X0.200000X0*%
%ADD24RoundRect,0.225000X0.225000X0.250000X-0.225000X0.250000X-0.225000X-0.250000X0.225000X-0.250000X0*%
%ADD25RoundRect,0.225000X-0.250000X0.225000X-0.250000X-0.225000X0.250000X-0.225000X0.250000X0.225000X0*%
%ADD26RoundRect,0.250000X-0.250000X-0.475000X0.250000X-0.475000X0.250000X0.475000X-0.250000X0.475000X0*%
%ADD27RoundRect,0.075000X-0.075000X0.125000X-0.075000X-0.125000X0.075000X-0.125000X0.075000X0.125000X0*%
%ADD28RoundRect,0.250000X-1.100000X0.325000X-1.100000X-0.325000X1.100000X-0.325000X1.100000X0.325000X0*%
%ADD29RoundRect,0.200000X0.275000X-0.200000X0.275000X0.200000X-0.275000X0.200000X-0.275000X-0.200000X0*%
%ADD30RoundRect,0.075000X0.125000X0.075000X-0.125000X0.075000X-0.125000X-0.075000X0.125000X-0.075000X0*%
%ADD31RoundRect,0.200000X0.200000X0.275000X-0.200000X0.275000X-0.200000X-0.275000X0.200000X-0.275000X0*%
%ADD32RoundRect,0.250000X-0.475000X0.250000X-0.475000X-0.250000X0.475000X-0.250000X0.475000X0.250000X0*%
%ADD33RoundRect,0.225000X0.250000X-0.225000X0.250000X0.225000X-0.250000X0.225000X-0.250000X-0.225000X0*%
%ADD34FreePoly0,0.000000*%
%ADD35R,0.850000X0.500000*%
%ADD36RoundRect,0.102000X-1.858000X-1.858000X1.858000X-1.858000X1.858000X1.858000X-1.858000X1.858000X0*%
%ADD37C,3.920000*%
%ADD38O,1.404000X2.604000*%
%ADD39C,1.600000*%
%ADD40RoundRect,0.250000X0.475000X-0.250000X0.475000X0.250000X-0.475000X0.250000X-0.475000X-0.250000X0*%
G04 APERTURE END LIST*
D10*
%TO.C,U401*%
X80250207Y-95596694D03*
X81520207Y-95596694D03*
X82790207Y-95596694D03*
X84060207Y-95596694D03*
X84060207Y-90148394D03*
X82790207Y-90148394D03*
X81520207Y-90148394D03*
X80250207Y-90148394D03*
%TD*%
%TO.C,U301*%
X80299207Y-110043844D03*
X81569207Y-110043844D03*
X82839207Y-110043844D03*
X84109207Y-110043844D03*
X84109207Y-104595544D03*
X82839207Y-104595544D03*
X81569207Y-104595544D03*
X80299207Y-104595544D03*
%TD*%
%TO.C,U201*%
X80463207Y-124338594D03*
X81733207Y-124338594D03*
X83003207Y-124338594D03*
X84273207Y-124338594D03*
X84273207Y-118890294D03*
X83003207Y-118890294D03*
X81733207Y-118890294D03*
X80463207Y-118890294D03*
%TD*%
D11*
%TO.C,U101*%
X80834996Y-70643513D03*
X79884995Y-70643513D03*
X78934994Y-70643513D03*
X78934994Y-73399413D03*
X79884995Y-73399413D03*
X80834996Y-73399413D03*
%TD*%
D12*
%TO.C,L101*%
X85198000Y-65532000D03*
X79610000Y-65532000D03*
%TD*%
D13*
%TO.C,J102*%
X56277720Y-110358543D03*
D14*
X56277720Y-106158544D03*
X56277720Y-101958545D03*
D15*
X48977719Y-110358543D03*
X48977719Y-101958560D03*
%TD*%
D16*
%TO.C,D107*%
X43166207Y-122186044D03*
X43166207Y-120611044D03*
%TD*%
%TO.C,D106*%
X45833207Y-122186044D03*
X45833207Y-120611044D03*
%TD*%
%TO.C,D105*%
X48500207Y-122186044D03*
X48500207Y-120611044D03*
%TD*%
D17*
%TO.C,D104*%
X102912500Y-78867000D03*
X101337500Y-78867000D03*
%TD*%
%TO.C,D103*%
X102912500Y-74676000D03*
X101337500Y-74676000D03*
%TD*%
D18*
%TO.C,D102*%
X101464500Y-70612000D03*
X103039500Y-70612000D03*
%TD*%
D19*
%TO.C,U105*%
X50725207Y-96882044D03*
X51675207Y-96882044D03*
X52625207Y-96882044D03*
X52625207Y-94607044D03*
X50725207Y-94607044D03*
%TD*%
D20*
%TO.C,C204*%
X68955207Y-119327544D03*
X71905207Y-119327544D03*
%TD*%
D21*
%TO.C,R204*%
X68777407Y-125906144D03*
X70427407Y-125906144D03*
%TD*%
D22*
%TO.C,C101*%
X95726000Y-72896875D03*
X97276000Y-72896875D03*
%TD*%
D23*
%TO.C,R205*%
X61081207Y-124344544D03*
X61081207Y-125994544D03*
%TD*%
D24*
%TO.C,C206*%
X74061207Y-125931544D03*
X72511207Y-125931544D03*
%TD*%
D23*
%TO.C,R118*%
X52564207Y-91109544D03*
X52564207Y-92759544D03*
%TD*%
D25*
%TO.C,C104*%
X85172600Y-70535800D03*
X85172600Y-72085800D03*
%TD*%
D26*
%TO.C,C302*%
X82160207Y-112254544D03*
X84060207Y-112254544D03*
%TD*%
D23*
%TO.C,R106*%
X79356000Y-76454000D03*
X79356000Y-78104000D03*
%TD*%
D27*
%TO.C,D201*%
X59811207Y-124058294D03*
X59811207Y-124558294D03*
%TD*%
D28*
%TO.C,C106*%
X89135000Y-66392000D03*
X89135000Y-69342000D03*
%TD*%
D20*
%TO.C,C303*%
X68869207Y-108825544D03*
X71819207Y-108825544D03*
%TD*%
D29*
%TO.C,R401*%
X62757207Y-97380544D03*
X62757207Y-95730544D03*
%TD*%
%TO.C,R301*%
X62900207Y-111897544D03*
X62900207Y-110247544D03*
%TD*%
D23*
%TO.C,R405*%
X60852207Y-95730544D03*
X60852207Y-97380544D03*
%TD*%
%TO.C,R116*%
X44436207Y-91109544D03*
X44436207Y-92759544D03*
%TD*%
D20*
%TO.C,C404*%
X68521207Y-94396544D03*
X71471207Y-94396544D03*
%TD*%
D25*
%TO.C,C207*%
X64891207Y-124394544D03*
X64891207Y-125944544D03*
%TD*%
D29*
%TO.C,R206*%
X66796207Y-125994544D03*
X66796207Y-124344544D03*
%TD*%
D30*
%TO.C,D101*%
X90989600Y-77287200D03*
X90489600Y-77287200D03*
%TD*%
D27*
%TO.C,D401*%
X59455207Y-95416544D03*
X59455207Y-95916544D03*
%TD*%
D29*
%TO.C,R201*%
X62986207Y-125994544D03*
X62986207Y-124344544D03*
%TD*%
%TO.C,R104*%
X81642000Y-78104000D03*
X81642000Y-76454000D03*
%TD*%
D23*
%TO.C,R103*%
X83928000Y-76454000D03*
X83928000Y-78104000D03*
%TD*%
%TO.C,R105*%
X86214000Y-76454000D03*
X86214000Y-78104000D03*
%TD*%
D26*
%TO.C,C202*%
X82131207Y-126732544D03*
X84031207Y-126732544D03*
%TD*%
D20*
%TO.C,C304*%
X68869207Y-105142544D03*
X71819207Y-105142544D03*
%TD*%
D31*
%TO.C,R102*%
X97326000Y-74803000D03*
X95676000Y-74803000D03*
%TD*%
D32*
%TO.C,C103*%
X89643000Y-73406000D03*
X89643000Y-75306000D03*
%TD*%
D33*
%TO.C,C107*%
X42658207Y-92709544D03*
X42658207Y-91159544D03*
%TD*%
D21*
%TO.C,R404*%
X68346207Y-97317544D03*
X69996207Y-97317544D03*
%TD*%
D26*
%TO.C,C402*%
X82033207Y-97903544D03*
X83933207Y-97903544D03*
%TD*%
D24*
%TO.C,C406*%
X73913207Y-97317544D03*
X72363207Y-97317544D03*
%TD*%
D21*
%TO.C,R304*%
X68630207Y-111746544D03*
X70280207Y-111746544D03*
%TD*%
D34*
%TO.C,Q301*%
X64455207Y-106373544D03*
D35*
X60905207Y-104468544D03*
X60905207Y-105738544D03*
X60905207Y-107008544D03*
X60905207Y-108278544D03*
%TD*%
D25*
%TO.C,C307*%
X64805207Y-110297544D03*
X64805207Y-111847544D03*
%TD*%
D23*
%TO.C,R305*%
X60995207Y-110247544D03*
X60995207Y-111897544D03*
%TD*%
D33*
%TO.C,C108*%
X46722207Y-92709544D03*
X46722207Y-91159544D03*
%TD*%
D34*
%TO.C,Q401*%
X64414207Y-91895544D03*
D35*
X60864207Y-89990544D03*
X60864207Y-91260544D03*
X60864207Y-92530544D03*
X60864207Y-93800544D03*
%TD*%
D36*
%TO.C,J101*%
X61747000Y-78009000D03*
D37*
X54547000Y-78009000D03*
D38*
X64897000Y-72009000D03*
X51397000Y-72009000D03*
%TD*%
D29*
%TO.C,R306*%
X66710207Y-111897544D03*
X66710207Y-110247544D03*
%TD*%
D19*
%TO.C,U104*%
X46661207Y-96882044D03*
X47611207Y-96882044D03*
X48561207Y-96882044D03*
X48561207Y-94607044D03*
X46661207Y-94607044D03*
%TD*%
D39*
%TO.C,U103*%
X104507207Y-116826544D03*
X104507207Y-114286544D03*
X104507207Y-111746544D03*
X104507207Y-109206544D03*
X104507207Y-106666544D03*
X104507207Y-104126544D03*
X104507207Y-101586544D03*
X104507207Y-99046544D03*
X104507207Y-96506544D03*
X104507207Y-93966544D03*
X104507207Y-91426544D03*
X104507207Y-88886544D03*
X104507207Y-86346544D03*
X104507207Y-83806544D03*
X101967207Y-83806544D03*
X99427207Y-83806544D03*
X96887207Y-83806544D03*
X94347207Y-83806544D03*
X91807207Y-83806544D03*
X89267207Y-83806544D03*
X89267207Y-86346544D03*
X89267207Y-88886544D03*
X89267207Y-91426544D03*
X89267207Y-93966544D03*
X89267207Y-96506544D03*
X89267207Y-99046544D03*
X89267207Y-101586544D03*
X89267207Y-104126544D03*
X89267207Y-106666544D03*
X89267207Y-109206544D03*
X89267207Y-111746544D03*
X89267207Y-114286544D03*
X89267207Y-116826544D03*
X91807207Y-114286544D03*
X91807207Y-88886544D03*
X91807207Y-91426544D03*
X94347207Y-88886544D03*
X94347207Y-91426544D03*
X96887207Y-88886544D03*
X96887207Y-91426544D03*
X99427207Y-88886544D03*
X99427207Y-91426544D03*
X101967207Y-88886544D03*
X101967207Y-91426544D03*
%TD*%
D24*
%TO.C,C306*%
X73913207Y-111746544D03*
X72363207Y-111746544D03*
%TD*%
D23*
%TO.C,R117*%
X48500207Y-91109544D03*
X48500207Y-92759544D03*
%TD*%
D19*
%TO.C,U102*%
X42597207Y-96882044D03*
X43547207Y-96882044D03*
X44497207Y-96882044D03*
X44497207Y-94607044D03*
X42597207Y-94607044D03*
%TD*%
D20*
%TO.C,C203*%
X68953407Y-123035944D03*
X71903407Y-123035944D03*
%TD*%
D29*
%TO.C,R406*%
X66567207Y-97380544D03*
X66567207Y-95730544D03*
%TD*%
D27*
%TO.C,D301*%
X59725207Y-109933544D03*
X59725207Y-110433544D03*
%TD*%
D21*
%TO.C,R101*%
X95676000Y-76708000D03*
X97326000Y-76708000D03*
%TD*%
D20*
%TO.C,C403*%
X68521207Y-90713544D03*
X71471207Y-90713544D03*
%TD*%
D40*
%TO.C,C102*%
X92005200Y-75306000D03*
X92005200Y-73406000D03*
%TD*%
D25*
%TO.C,C407*%
X64662207Y-95780544D03*
X64662207Y-97330544D03*
%TD*%
D34*
%TO.C,Q201*%
X64668207Y-120597544D03*
D35*
X61118207Y-118692544D03*
X61118207Y-119962544D03*
X61118207Y-121232544D03*
X61118207Y-122502544D03*
%TD*%
D33*
%TO.C,C109*%
X50786207Y-92709544D03*
X50786207Y-91159544D03*
%TD*%
D28*
%TO.C,C105*%
X93072000Y-66370686D03*
X93072000Y-69320686D03*
%TD*%
M02*
