%TF.GenerationSoftware,KiCad,Pcbnew,7.0.9*%
%TF.CreationDate,2023-12-30T21:06:43-05:00*%
%TF.ProjectId,esc,6573632e-6b69-4636-9164-5f7063625858,rev?*%
%TF.SameCoordinates,Original*%
%TF.FileFunction,Drillmap*%
%TF.FilePolarity,Positive*%
%FSLAX45Y45*%
G04 Gerber Fmt 4.5, Leading zero omitted, Abs format (unit mm)*
G04 Created by KiCad (PCBNEW 7.0.9) date 2023-12-30 21:06:43*
%MOMM*%
%LPD*%
G01*
G04 APERTURE LIST*
%ADD10C,0.100000*%
%ADD11C,0.200000*%
%ADD12C,0.299999*%
G04 APERTURE END LIST*
D10*
X4697621Y-12700000D02*
G75*
G03*
X4697621Y-12700000I-254000J0D01*
G01*
X4089696Y-12816896D02*
X4089400Y-6248400D01*
X4697621Y-6375400D02*
G75*
G03*
X4697621Y-6375400I-254000J0D01*
G01*
X4089400Y-6248400D02*
X4287520Y-6050280D01*
X10564500Y-12694920D02*
G75*
G03*
X10564500Y-12694920I-254000J0D01*
G01*
X10455105Y-13015583D02*
X10653225Y-12817463D01*
X4287816Y-13015016D02*
X4089696Y-12816896D01*
X4287520Y-6050280D02*
X10452100Y-6052820D01*
X10564500Y-6375400D02*
G75*
G03*
X10564500Y-6375400I-254000J0D01*
G01*
X10652760Y-6253480D02*
X10452100Y-6052820D01*
X10652760Y-6253480D02*
X10653225Y-12817463D01*
X10455105Y-13015583D02*
X4287816Y-13015016D01*
D11*
D12*
X4747772Y-10045856D02*
X5047772Y-10345856D01*
X5047772Y-10045856D02*
X4747772Y-10345856D01*
X4747772Y-10885854D02*
X5047772Y-11185854D01*
X5047772Y-10885854D02*
X4747772Y-11185854D01*
D11*
X4345177Y-13332067D02*
X4345177Y-13132067D01*
X4345177Y-13132067D02*
X4392796Y-13132067D01*
X4392796Y-13132067D02*
X4421367Y-13141591D01*
X4421367Y-13141591D02*
X4440415Y-13160639D01*
X4440415Y-13160639D02*
X4449939Y-13179686D01*
X4449939Y-13179686D02*
X4459463Y-13217781D01*
X4459463Y-13217781D02*
X4459463Y-13246353D01*
X4459463Y-13246353D02*
X4449939Y-13284448D01*
X4449939Y-13284448D02*
X4440415Y-13303496D01*
X4440415Y-13303496D02*
X4421367Y-13322543D01*
X4421367Y-13322543D02*
X4392796Y-13332067D01*
X4392796Y-13332067D02*
X4345177Y-13332067D01*
X4545177Y-13332067D02*
X4545177Y-13198734D01*
X4545177Y-13236829D02*
X4554701Y-13217781D01*
X4554701Y-13217781D02*
X4564224Y-13208258D01*
X4564224Y-13208258D02*
X4583272Y-13198734D01*
X4583272Y-13198734D02*
X4602320Y-13198734D01*
X4668986Y-13332067D02*
X4668986Y-13198734D01*
X4668986Y-13132067D02*
X4659463Y-13141591D01*
X4659463Y-13141591D02*
X4668986Y-13151115D01*
X4668986Y-13151115D02*
X4678510Y-13141591D01*
X4678510Y-13141591D02*
X4668986Y-13132067D01*
X4668986Y-13132067D02*
X4668986Y-13151115D01*
X4792796Y-13332067D02*
X4773748Y-13322543D01*
X4773748Y-13322543D02*
X4764224Y-13303496D01*
X4764224Y-13303496D02*
X4764224Y-13132067D01*
X4897558Y-13332067D02*
X4878510Y-13322543D01*
X4878510Y-13322543D02*
X4868986Y-13303496D01*
X4868986Y-13303496D02*
X4868986Y-13132067D01*
X5126129Y-13332067D02*
X5126129Y-13132067D01*
X5126129Y-13132067D02*
X5192796Y-13274924D01*
X5192796Y-13274924D02*
X5259463Y-13132067D01*
X5259463Y-13132067D02*
X5259463Y-13332067D01*
X5440415Y-13332067D02*
X5440415Y-13227305D01*
X5440415Y-13227305D02*
X5430891Y-13208258D01*
X5430891Y-13208258D02*
X5411844Y-13198734D01*
X5411844Y-13198734D02*
X5373748Y-13198734D01*
X5373748Y-13198734D02*
X5354701Y-13208258D01*
X5440415Y-13322543D02*
X5421367Y-13332067D01*
X5421367Y-13332067D02*
X5373748Y-13332067D01*
X5373748Y-13332067D02*
X5354701Y-13322543D01*
X5354701Y-13322543D02*
X5345177Y-13303496D01*
X5345177Y-13303496D02*
X5345177Y-13284448D01*
X5345177Y-13284448D02*
X5354701Y-13265400D01*
X5354701Y-13265400D02*
X5373748Y-13255877D01*
X5373748Y-13255877D02*
X5421367Y-13255877D01*
X5421367Y-13255877D02*
X5440415Y-13246353D01*
X5535653Y-13198734D02*
X5535653Y-13398734D01*
X5535653Y-13208258D02*
X5554701Y-13198734D01*
X5554701Y-13198734D02*
X5592796Y-13198734D01*
X5592796Y-13198734D02*
X5611843Y-13208258D01*
X5611843Y-13208258D02*
X5621367Y-13217781D01*
X5621367Y-13217781D02*
X5630891Y-13236829D01*
X5630891Y-13236829D02*
X5630891Y-13293972D01*
X5630891Y-13293972D02*
X5621367Y-13313019D01*
X5621367Y-13313019D02*
X5611843Y-13322543D01*
X5611843Y-13322543D02*
X5592796Y-13332067D01*
X5592796Y-13332067D02*
X5554701Y-13332067D01*
X5554701Y-13332067D02*
X5535653Y-13322543D01*
X5716605Y-13313019D02*
X5726129Y-13322543D01*
X5726129Y-13322543D02*
X5716605Y-13332067D01*
X5716605Y-13332067D02*
X5707082Y-13322543D01*
X5707082Y-13322543D02*
X5716605Y-13313019D01*
X5716605Y-13313019D02*
X5716605Y-13332067D01*
X5716605Y-13208258D02*
X5726129Y-13217781D01*
X5726129Y-13217781D02*
X5716605Y-13227305D01*
X5716605Y-13227305D02*
X5707082Y-13217781D01*
X5707082Y-13217781D02*
X5716605Y-13208258D01*
X5716605Y-13208258D02*
X5716605Y-13227305D01*
X3884400Y-13560583D02*
X4084400Y-13760583D01*
X4084400Y-13560583D02*
X3884400Y-13760583D01*
X4326129Y-13552067D02*
X4449939Y-13552067D01*
X4449939Y-13552067D02*
X4383272Y-13628258D01*
X4383272Y-13628258D02*
X4411844Y-13628258D01*
X4411844Y-13628258D02*
X4430891Y-13637781D01*
X4430891Y-13637781D02*
X4440415Y-13647305D01*
X4440415Y-13647305D02*
X4449939Y-13666353D01*
X4449939Y-13666353D02*
X4449939Y-13713972D01*
X4449939Y-13713972D02*
X4440415Y-13733019D01*
X4440415Y-13733019D02*
X4430891Y-13742543D01*
X4430891Y-13742543D02*
X4411844Y-13752067D01*
X4411844Y-13752067D02*
X4354701Y-13752067D01*
X4354701Y-13752067D02*
X4335653Y-13742543D01*
X4335653Y-13742543D02*
X4326129Y-13733019D01*
X4535653Y-13733019D02*
X4545177Y-13742543D01*
X4545177Y-13742543D02*
X4535653Y-13752067D01*
X4535653Y-13752067D02*
X4526129Y-13742543D01*
X4526129Y-13742543D02*
X4535653Y-13733019D01*
X4535653Y-13733019D02*
X4535653Y-13752067D01*
X4668986Y-13552067D02*
X4688034Y-13552067D01*
X4688034Y-13552067D02*
X4707082Y-13561591D01*
X4707082Y-13561591D02*
X4716605Y-13571115D01*
X4716605Y-13571115D02*
X4726129Y-13590162D01*
X4726129Y-13590162D02*
X4735653Y-13628258D01*
X4735653Y-13628258D02*
X4735653Y-13675877D01*
X4735653Y-13675877D02*
X4726129Y-13713972D01*
X4726129Y-13713972D02*
X4716605Y-13733019D01*
X4716605Y-13733019D02*
X4707082Y-13742543D01*
X4707082Y-13742543D02*
X4688034Y-13752067D01*
X4688034Y-13752067D02*
X4668986Y-13752067D01*
X4668986Y-13752067D02*
X4649939Y-13742543D01*
X4649939Y-13742543D02*
X4640415Y-13733019D01*
X4640415Y-13733019D02*
X4630891Y-13713972D01*
X4630891Y-13713972D02*
X4621367Y-13675877D01*
X4621367Y-13675877D02*
X4621367Y-13628258D01*
X4621367Y-13628258D02*
X4630891Y-13590162D01*
X4630891Y-13590162D02*
X4640415Y-13571115D01*
X4640415Y-13571115D02*
X4649939Y-13561591D01*
X4649939Y-13561591D02*
X4668986Y-13552067D01*
X4859463Y-13552067D02*
X4878510Y-13552067D01*
X4878510Y-13552067D02*
X4897558Y-13561591D01*
X4897558Y-13561591D02*
X4907082Y-13571115D01*
X4907082Y-13571115D02*
X4916605Y-13590162D01*
X4916605Y-13590162D02*
X4926129Y-13628258D01*
X4926129Y-13628258D02*
X4926129Y-13675877D01*
X4926129Y-13675877D02*
X4916605Y-13713972D01*
X4916605Y-13713972D02*
X4907082Y-13733019D01*
X4907082Y-13733019D02*
X4897558Y-13742543D01*
X4897558Y-13742543D02*
X4878510Y-13752067D01*
X4878510Y-13752067D02*
X4859463Y-13752067D01*
X4859463Y-13752067D02*
X4840415Y-13742543D01*
X4840415Y-13742543D02*
X4830891Y-13733019D01*
X4830891Y-13733019D02*
X4821367Y-13713972D01*
X4821367Y-13713972D02*
X4811844Y-13675877D01*
X4811844Y-13675877D02*
X4811844Y-13628258D01*
X4811844Y-13628258D02*
X4821367Y-13590162D01*
X4821367Y-13590162D02*
X4830891Y-13571115D01*
X4830891Y-13571115D02*
X4840415Y-13561591D01*
X4840415Y-13561591D02*
X4859463Y-13552067D01*
X5049939Y-13552067D02*
X5068986Y-13552067D01*
X5068986Y-13552067D02*
X5088034Y-13561591D01*
X5088034Y-13561591D02*
X5097558Y-13571115D01*
X5097558Y-13571115D02*
X5107082Y-13590162D01*
X5107082Y-13590162D02*
X5116605Y-13628258D01*
X5116605Y-13628258D02*
X5116605Y-13675877D01*
X5116605Y-13675877D02*
X5107082Y-13713972D01*
X5107082Y-13713972D02*
X5097558Y-13733019D01*
X5097558Y-13733019D02*
X5088034Y-13742543D01*
X5088034Y-13742543D02*
X5068986Y-13752067D01*
X5068986Y-13752067D02*
X5049939Y-13752067D01*
X5049939Y-13752067D02*
X5030891Y-13742543D01*
X5030891Y-13742543D02*
X5021367Y-13733019D01*
X5021367Y-13733019D02*
X5011844Y-13713972D01*
X5011844Y-13713972D02*
X5002320Y-13675877D01*
X5002320Y-13675877D02*
X5002320Y-13628258D01*
X5002320Y-13628258D02*
X5011844Y-13590162D01*
X5011844Y-13590162D02*
X5021367Y-13571115D01*
X5021367Y-13571115D02*
X5030891Y-13561591D01*
X5030891Y-13561591D02*
X5049939Y-13552067D01*
X5202320Y-13752067D02*
X5202320Y-13618734D01*
X5202320Y-13637781D02*
X5211844Y-13628258D01*
X5211844Y-13628258D02*
X5230891Y-13618734D01*
X5230891Y-13618734D02*
X5259463Y-13618734D01*
X5259463Y-13618734D02*
X5278510Y-13628258D01*
X5278510Y-13628258D02*
X5288034Y-13647305D01*
X5288034Y-13647305D02*
X5288034Y-13752067D01*
X5288034Y-13647305D02*
X5297558Y-13628258D01*
X5297558Y-13628258D02*
X5316605Y-13618734D01*
X5316605Y-13618734D02*
X5345177Y-13618734D01*
X5345177Y-13618734D02*
X5364225Y-13628258D01*
X5364225Y-13628258D02*
X5373748Y-13647305D01*
X5373748Y-13647305D02*
X5373748Y-13752067D01*
X5468986Y-13752067D02*
X5468986Y-13618734D01*
X5468986Y-13637781D02*
X5478510Y-13628258D01*
X5478510Y-13628258D02*
X5497558Y-13618734D01*
X5497558Y-13618734D02*
X5526129Y-13618734D01*
X5526129Y-13618734D02*
X5545177Y-13628258D01*
X5545177Y-13628258D02*
X5554701Y-13647305D01*
X5554701Y-13647305D02*
X5554701Y-13752067D01*
X5554701Y-13647305D02*
X5564225Y-13628258D01*
X5564225Y-13628258D02*
X5583272Y-13618734D01*
X5583272Y-13618734D02*
X5611843Y-13618734D01*
X5611843Y-13618734D02*
X5630891Y-13628258D01*
X5630891Y-13628258D02*
X5640415Y-13647305D01*
X5640415Y-13647305D02*
X5640415Y-13752067D01*
X6030891Y-13542543D02*
X5859463Y-13799686D01*
X6288034Y-13552067D02*
X6307082Y-13552067D01*
X6307082Y-13552067D02*
X6326129Y-13561591D01*
X6326129Y-13561591D02*
X6335653Y-13571115D01*
X6335653Y-13571115D02*
X6345177Y-13590162D01*
X6345177Y-13590162D02*
X6354701Y-13628258D01*
X6354701Y-13628258D02*
X6354701Y-13675877D01*
X6354701Y-13675877D02*
X6345177Y-13713972D01*
X6345177Y-13713972D02*
X6335653Y-13733019D01*
X6335653Y-13733019D02*
X6326129Y-13742543D01*
X6326129Y-13742543D02*
X6307082Y-13752067D01*
X6307082Y-13752067D02*
X6288034Y-13752067D01*
X6288034Y-13752067D02*
X6268986Y-13742543D01*
X6268986Y-13742543D02*
X6259463Y-13733019D01*
X6259463Y-13733019D02*
X6249939Y-13713972D01*
X6249939Y-13713972D02*
X6240415Y-13675877D01*
X6240415Y-13675877D02*
X6240415Y-13628258D01*
X6240415Y-13628258D02*
X6249939Y-13590162D01*
X6249939Y-13590162D02*
X6259463Y-13571115D01*
X6259463Y-13571115D02*
X6268986Y-13561591D01*
X6268986Y-13561591D02*
X6288034Y-13552067D01*
X6440415Y-13733019D02*
X6449939Y-13742543D01*
X6449939Y-13742543D02*
X6440415Y-13752067D01*
X6440415Y-13752067D02*
X6430891Y-13742543D01*
X6430891Y-13742543D02*
X6440415Y-13733019D01*
X6440415Y-13733019D02*
X6440415Y-13752067D01*
X6640415Y-13752067D02*
X6526129Y-13752067D01*
X6583272Y-13752067D02*
X6583272Y-13552067D01*
X6583272Y-13552067D02*
X6564225Y-13580639D01*
X6564225Y-13580639D02*
X6545177Y-13599686D01*
X6545177Y-13599686D02*
X6526129Y-13609210D01*
X6830891Y-13752067D02*
X6716606Y-13752067D01*
X6773748Y-13752067D02*
X6773748Y-13552067D01*
X6773748Y-13552067D02*
X6754701Y-13580639D01*
X6754701Y-13580639D02*
X6735653Y-13599686D01*
X6735653Y-13599686D02*
X6716606Y-13609210D01*
X6945177Y-13637781D02*
X6926129Y-13628258D01*
X6926129Y-13628258D02*
X6916606Y-13618734D01*
X6916606Y-13618734D02*
X6907082Y-13599686D01*
X6907082Y-13599686D02*
X6907082Y-13590162D01*
X6907082Y-13590162D02*
X6916606Y-13571115D01*
X6916606Y-13571115D02*
X6926129Y-13561591D01*
X6926129Y-13561591D02*
X6945177Y-13552067D01*
X6945177Y-13552067D02*
X6983272Y-13552067D01*
X6983272Y-13552067D02*
X7002320Y-13561591D01*
X7002320Y-13561591D02*
X7011844Y-13571115D01*
X7011844Y-13571115D02*
X7021367Y-13590162D01*
X7021367Y-13590162D02*
X7021367Y-13599686D01*
X7021367Y-13599686D02*
X7011844Y-13618734D01*
X7011844Y-13618734D02*
X7002320Y-13628258D01*
X7002320Y-13628258D02*
X6983272Y-13637781D01*
X6983272Y-13637781D02*
X6945177Y-13637781D01*
X6945177Y-13637781D02*
X6926129Y-13647305D01*
X6926129Y-13647305D02*
X6916606Y-13656829D01*
X6916606Y-13656829D02*
X6907082Y-13675877D01*
X6907082Y-13675877D02*
X6907082Y-13713972D01*
X6907082Y-13713972D02*
X6916606Y-13733019D01*
X6916606Y-13733019D02*
X6926129Y-13742543D01*
X6926129Y-13742543D02*
X6945177Y-13752067D01*
X6945177Y-13752067D02*
X6983272Y-13752067D01*
X6983272Y-13752067D02*
X7002320Y-13742543D01*
X7002320Y-13742543D02*
X7011844Y-13733019D01*
X7011844Y-13733019D02*
X7021367Y-13713972D01*
X7021367Y-13713972D02*
X7021367Y-13675877D01*
X7021367Y-13675877D02*
X7011844Y-13656829D01*
X7011844Y-13656829D02*
X7002320Y-13647305D01*
X7002320Y-13647305D02*
X6983272Y-13637781D01*
X7211844Y-13752067D02*
X7097558Y-13752067D01*
X7154701Y-13752067D02*
X7154701Y-13552067D01*
X7154701Y-13552067D02*
X7135653Y-13580639D01*
X7135653Y-13580639D02*
X7116606Y-13599686D01*
X7116606Y-13599686D02*
X7097558Y-13609210D01*
X7288034Y-13552067D02*
X7288034Y-13590162D01*
X7364225Y-13552067D02*
X7364225Y-13590162D01*
X7659463Y-13828258D02*
X7649939Y-13818734D01*
X7649939Y-13818734D02*
X7630891Y-13790162D01*
X7630891Y-13790162D02*
X7621368Y-13771115D01*
X7621368Y-13771115D02*
X7611844Y-13742543D01*
X7611844Y-13742543D02*
X7602320Y-13694924D01*
X7602320Y-13694924D02*
X7602320Y-13656829D01*
X7602320Y-13656829D02*
X7611844Y-13609210D01*
X7611844Y-13609210D02*
X7621368Y-13580639D01*
X7621368Y-13580639D02*
X7630891Y-13561591D01*
X7630891Y-13561591D02*
X7649939Y-13533019D01*
X7649939Y-13533019D02*
X7659463Y-13523496D01*
X7726129Y-13571115D02*
X7735653Y-13561591D01*
X7735653Y-13561591D02*
X7754701Y-13552067D01*
X7754701Y-13552067D02*
X7802320Y-13552067D01*
X7802320Y-13552067D02*
X7821368Y-13561591D01*
X7821368Y-13561591D02*
X7830891Y-13571115D01*
X7830891Y-13571115D02*
X7840415Y-13590162D01*
X7840415Y-13590162D02*
X7840415Y-13609210D01*
X7840415Y-13609210D02*
X7830891Y-13637781D01*
X7830891Y-13637781D02*
X7716606Y-13752067D01*
X7716606Y-13752067D02*
X7840415Y-13752067D01*
X8078510Y-13752067D02*
X8078510Y-13552067D01*
X8164225Y-13752067D02*
X8164225Y-13647305D01*
X8164225Y-13647305D02*
X8154701Y-13628258D01*
X8154701Y-13628258D02*
X8135653Y-13618734D01*
X8135653Y-13618734D02*
X8107082Y-13618734D01*
X8107082Y-13618734D02*
X8088034Y-13628258D01*
X8088034Y-13628258D02*
X8078510Y-13637781D01*
X8288034Y-13752067D02*
X8268987Y-13742543D01*
X8268987Y-13742543D02*
X8259463Y-13733019D01*
X8259463Y-13733019D02*
X8249939Y-13713972D01*
X8249939Y-13713972D02*
X8249939Y-13656829D01*
X8249939Y-13656829D02*
X8259463Y-13637781D01*
X8259463Y-13637781D02*
X8268987Y-13628258D01*
X8268987Y-13628258D02*
X8288034Y-13618734D01*
X8288034Y-13618734D02*
X8316606Y-13618734D01*
X8316606Y-13618734D02*
X8335653Y-13628258D01*
X8335653Y-13628258D02*
X8345177Y-13637781D01*
X8345177Y-13637781D02*
X8354701Y-13656829D01*
X8354701Y-13656829D02*
X8354701Y-13713972D01*
X8354701Y-13713972D02*
X8345177Y-13733019D01*
X8345177Y-13733019D02*
X8335653Y-13742543D01*
X8335653Y-13742543D02*
X8316606Y-13752067D01*
X8316606Y-13752067D02*
X8288034Y-13752067D01*
X8468987Y-13752067D02*
X8449939Y-13742543D01*
X8449939Y-13742543D02*
X8440415Y-13723496D01*
X8440415Y-13723496D02*
X8440415Y-13552067D01*
X8621368Y-13742543D02*
X8602320Y-13752067D01*
X8602320Y-13752067D02*
X8564225Y-13752067D01*
X8564225Y-13752067D02*
X8545177Y-13742543D01*
X8545177Y-13742543D02*
X8535653Y-13723496D01*
X8535653Y-13723496D02*
X8535653Y-13647305D01*
X8535653Y-13647305D02*
X8545177Y-13628258D01*
X8545177Y-13628258D02*
X8564225Y-13618734D01*
X8564225Y-13618734D02*
X8602320Y-13618734D01*
X8602320Y-13618734D02*
X8621368Y-13628258D01*
X8621368Y-13628258D02*
X8630892Y-13647305D01*
X8630892Y-13647305D02*
X8630892Y-13666353D01*
X8630892Y-13666353D02*
X8535653Y-13685400D01*
X8707082Y-13742543D02*
X8726130Y-13752067D01*
X8726130Y-13752067D02*
X8764225Y-13752067D01*
X8764225Y-13752067D02*
X8783273Y-13742543D01*
X8783273Y-13742543D02*
X8792796Y-13723496D01*
X8792796Y-13723496D02*
X8792796Y-13713972D01*
X8792796Y-13713972D02*
X8783273Y-13694924D01*
X8783273Y-13694924D02*
X8764225Y-13685400D01*
X8764225Y-13685400D02*
X8735653Y-13685400D01*
X8735653Y-13685400D02*
X8716606Y-13675877D01*
X8716606Y-13675877D02*
X8707082Y-13656829D01*
X8707082Y-13656829D02*
X8707082Y-13647305D01*
X8707082Y-13647305D02*
X8716606Y-13628258D01*
X8716606Y-13628258D02*
X8735653Y-13618734D01*
X8735653Y-13618734D02*
X8764225Y-13618734D01*
X8764225Y-13618734D02*
X8783273Y-13628258D01*
X8859463Y-13828258D02*
X8868987Y-13818734D01*
X8868987Y-13818734D02*
X8888034Y-13790162D01*
X8888034Y-13790162D02*
X8897558Y-13771115D01*
X8897558Y-13771115D02*
X8907082Y-13742543D01*
X8907082Y-13742543D02*
X8916606Y-13694924D01*
X8916606Y-13694924D02*
X8916606Y-13656829D01*
X8916606Y-13656829D02*
X8907082Y-13609210D01*
X8907082Y-13609210D02*
X8897558Y-13580639D01*
X8897558Y-13580639D02*
X8888034Y-13561591D01*
X8888034Y-13561591D02*
X8868987Y-13533019D01*
X8868987Y-13533019D02*
X8859463Y-13523496D01*
X9221368Y-13828258D02*
X9211844Y-13818734D01*
X9211844Y-13818734D02*
X9192796Y-13790162D01*
X9192796Y-13790162D02*
X9183273Y-13771115D01*
X9183273Y-13771115D02*
X9173749Y-13742543D01*
X9173749Y-13742543D02*
X9164225Y-13694924D01*
X9164225Y-13694924D02*
X9164225Y-13656829D01*
X9164225Y-13656829D02*
X9173749Y-13609210D01*
X9173749Y-13609210D02*
X9183273Y-13580639D01*
X9183273Y-13580639D02*
X9192796Y-13561591D01*
X9192796Y-13561591D02*
X9211844Y-13533019D01*
X9211844Y-13533019D02*
X9221368Y-13523496D01*
X9297558Y-13618734D02*
X9297558Y-13752067D01*
X9297558Y-13637781D02*
X9307082Y-13628258D01*
X9307082Y-13628258D02*
X9326130Y-13618734D01*
X9326130Y-13618734D02*
X9354701Y-13618734D01*
X9354701Y-13618734D02*
X9373749Y-13628258D01*
X9373749Y-13628258D02*
X9383273Y-13647305D01*
X9383273Y-13647305D02*
X9383273Y-13752067D01*
X9507082Y-13752067D02*
X9488034Y-13742543D01*
X9488034Y-13742543D02*
X9478511Y-13733019D01*
X9478511Y-13733019D02*
X9468987Y-13713972D01*
X9468987Y-13713972D02*
X9468987Y-13656829D01*
X9468987Y-13656829D02*
X9478511Y-13637781D01*
X9478511Y-13637781D02*
X9488034Y-13628258D01*
X9488034Y-13628258D02*
X9507082Y-13618734D01*
X9507082Y-13618734D02*
X9535654Y-13618734D01*
X9535654Y-13618734D02*
X9554701Y-13628258D01*
X9554701Y-13628258D02*
X9564225Y-13637781D01*
X9564225Y-13637781D02*
X9573749Y-13656829D01*
X9573749Y-13656829D02*
X9573749Y-13713972D01*
X9573749Y-13713972D02*
X9564225Y-13733019D01*
X9564225Y-13733019D02*
X9554701Y-13742543D01*
X9554701Y-13742543D02*
X9535654Y-13752067D01*
X9535654Y-13752067D02*
X9507082Y-13752067D01*
X9630892Y-13618734D02*
X9707082Y-13618734D01*
X9659463Y-13552067D02*
X9659463Y-13723496D01*
X9659463Y-13723496D02*
X9668987Y-13742543D01*
X9668987Y-13742543D02*
X9688034Y-13752067D01*
X9688034Y-13752067D02*
X9707082Y-13752067D01*
X9926130Y-13618734D02*
X9926130Y-13818734D01*
X9926130Y-13628258D02*
X9945177Y-13618734D01*
X9945177Y-13618734D02*
X9983273Y-13618734D01*
X9983273Y-13618734D02*
X10002320Y-13628258D01*
X10002320Y-13628258D02*
X10011844Y-13637781D01*
X10011844Y-13637781D02*
X10021368Y-13656829D01*
X10021368Y-13656829D02*
X10021368Y-13713972D01*
X10021368Y-13713972D02*
X10011844Y-13733019D01*
X10011844Y-13733019D02*
X10002320Y-13742543D01*
X10002320Y-13742543D02*
X9983273Y-13752067D01*
X9983273Y-13752067D02*
X9945177Y-13752067D01*
X9945177Y-13752067D02*
X9926130Y-13742543D01*
X10135654Y-13752067D02*
X10116606Y-13742543D01*
X10116606Y-13742543D02*
X10107082Y-13723496D01*
X10107082Y-13723496D02*
X10107082Y-13552067D01*
X10297558Y-13752067D02*
X10297558Y-13647305D01*
X10297558Y-13647305D02*
X10288035Y-13628258D01*
X10288035Y-13628258D02*
X10268987Y-13618734D01*
X10268987Y-13618734D02*
X10230892Y-13618734D01*
X10230892Y-13618734D02*
X10211844Y-13628258D01*
X10297558Y-13742543D02*
X10278511Y-13752067D01*
X10278511Y-13752067D02*
X10230892Y-13752067D01*
X10230892Y-13752067D02*
X10211844Y-13742543D01*
X10211844Y-13742543D02*
X10202320Y-13723496D01*
X10202320Y-13723496D02*
X10202320Y-13704448D01*
X10202320Y-13704448D02*
X10211844Y-13685400D01*
X10211844Y-13685400D02*
X10230892Y-13675877D01*
X10230892Y-13675877D02*
X10278511Y-13675877D01*
X10278511Y-13675877D02*
X10297558Y-13666353D01*
X10364225Y-13618734D02*
X10440415Y-13618734D01*
X10392796Y-13552067D02*
X10392796Y-13723496D01*
X10392796Y-13723496D02*
X10402320Y-13742543D01*
X10402320Y-13742543D02*
X10421368Y-13752067D01*
X10421368Y-13752067D02*
X10440415Y-13752067D01*
X10583273Y-13742543D02*
X10564225Y-13752067D01*
X10564225Y-13752067D02*
X10526130Y-13752067D01*
X10526130Y-13752067D02*
X10507082Y-13742543D01*
X10507082Y-13742543D02*
X10497558Y-13723496D01*
X10497558Y-13723496D02*
X10497558Y-13647305D01*
X10497558Y-13647305D02*
X10507082Y-13628258D01*
X10507082Y-13628258D02*
X10526130Y-13618734D01*
X10526130Y-13618734D02*
X10564225Y-13618734D01*
X10564225Y-13618734D02*
X10583273Y-13628258D01*
X10583273Y-13628258D02*
X10592796Y-13647305D01*
X10592796Y-13647305D02*
X10592796Y-13666353D01*
X10592796Y-13666353D02*
X10497558Y-13685400D01*
X10764225Y-13752067D02*
X10764225Y-13552067D01*
X10764225Y-13742543D02*
X10745177Y-13752067D01*
X10745177Y-13752067D02*
X10707082Y-13752067D01*
X10707082Y-13752067D02*
X10688035Y-13742543D01*
X10688035Y-13742543D02*
X10678511Y-13733019D01*
X10678511Y-13733019D02*
X10668987Y-13713972D01*
X10668987Y-13713972D02*
X10668987Y-13656829D01*
X10668987Y-13656829D02*
X10678511Y-13637781D01*
X10678511Y-13637781D02*
X10688035Y-13628258D01*
X10688035Y-13628258D02*
X10707082Y-13618734D01*
X10707082Y-13618734D02*
X10745177Y-13618734D01*
X10745177Y-13618734D02*
X10764225Y-13628258D01*
X10840416Y-13828258D02*
X10849939Y-13818734D01*
X10849939Y-13818734D02*
X10868987Y-13790162D01*
X10868987Y-13790162D02*
X10878511Y-13771115D01*
X10878511Y-13771115D02*
X10888035Y-13742543D01*
X10888035Y-13742543D02*
X10897558Y-13694924D01*
X10897558Y-13694924D02*
X10897558Y-13656829D01*
X10897558Y-13656829D02*
X10888035Y-13609210D01*
X10888035Y-13609210D02*
X10878511Y-13580639D01*
X10878511Y-13580639D02*
X10868987Y-13561591D01*
X10868987Y-13561591D02*
X10849939Y-13533019D01*
X10849939Y-13533019D02*
X10840416Y-13523496D01*
M02*
