M48
; DRILL file {KiCad 7.0.9} date Sat Dec 30 21:06:42 2023
; FORMAT={-:-/ absolute / inch / decimal}
; #@! TF.CreationDate,2023-12-30T21:06:42-05:00
; #@! TF.GenerationSoftware,Kicad,Pcbnew,7.0.9
; #@! TF.FileFunction,Plated,1,4,PTH
FMAT,2
INCH
; #@! TA.AperFunction,Plated,PTH,ViaDrill
T1C0.0157
; #@! TA.AperFunction,Plated,PTH,ComponentDrill
T2C0.0236
; #@! TA.AperFunction,Plated,PTH,ComponentDrill
T3C0.0433
; #@! TA.AperFunction,Plated,PTH,ViaDrill
T4C0.0500
; #@! TA.AperFunction,Plated,PTH,ComponentDrill
T5C0.0709
; #@! TA.AperFunction,Plated,PTH,ComponentDrill
T6C0.1063
%
G90
G05
T1
X1.6395Y-3.6845
X1.6795Y-3.5095
X1.6845Y-3.8845
X1.6995Y-4.7045
X1.6995Y-4.8595
X1.7095Y-3.9445
X1.7945Y-3.6495
X1.7945Y-3.6995
X1.8045Y-4.7045
X1.8145Y-3.8845
X1.9095Y-4.7045
X1.9545Y-3.6495
X1.9545Y-3.6995
X1.9995Y-3.8845
X2.0395Y-3.7245
X2.0695Y-3.3645
X2.3395Y-3.8095
X2.3495Y-4.3795
X2.3545Y-4.9395
X2.3995Y-3.8795
X2.4045Y-4.4495
X2.4045Y-5.0045
X2.4745Y-3.8795
X2.4795Y-4.4495
X2.4798Y-5.0045
X2.5495Y-3.8795
X2.5545Y-4.45
X2.5545Y-5.0045
X2.6245Y-3.8795
X2.6295Y-4.4495
X2.6298Y-5.0045
X2.6945Y-3.8795
X2.7045Y-4.4495
X2.7095Y-5.0045
X2.8095Y-3.8795
X2.8145Y-4.4495
X3.1243Y-3.13
X3.1595Y-3.8295
X3.1645Y-3.4895
X3.1645Y-3.8795
X3.1645Y-4.3945
X3.1645Y-4.9595
X3.1695Y-4.0595
X3.1695Y-4.6145
X3.1745Y-4.4445
X3.2095Y-3.4895
X3.2143Y-2.96
X3.2145Y-4.0595
X3.2195Y-4.6145
X3.26Y-2.776
X3.2895Y-3.7095
X3.29Y-2.808
X3.2985Y-4.2802
X3.3043Y-2.96
X3.3095Y-4.8429
X3.3145Y-4.0595
X3.3995Y-3.4895
X3.402Y-3.402
X3.4693Y-2.995
X3.47Y-2.955
X3.47Y-3.035
X3.5945Y-4.1995
X3.6892Y-4.3295
X3.6993Y-2.995
X3.6993Y-3.035
X3.7Y-2.955
X3.7543Y-2.78
X3.755Y-2.7
X3.755Y-2.74
X3.9293Y-2.78
X3.9293Y-2.94
X3.9293Y-3.105
X4.1093Y-2.94
X4.1093Y-3.105
X4.1143Y-2.78
T3
X3.5145Y-3.2995
X3.5145Y-3.3995
X3.5145Y-3.4995
X3.5145Y-3.5995
X3.5145Y-3.6995
X3.5145Y-3.7995
X3.5145Y-3.8995
X3.5145Y-3.9995
X3.5145Y-4.0995
X3.5145Y-4.1995
X3.5145Y-4.2995
X3.5145Y-4.3995
X3.5145Y-4.4995
X3.5145Y-4.5995
X3.6145Y-3.2995
X3.6145Y-3.4995
X3.6145Y-3.5995
X3.6145Y-4.4995
X3.7145Y-3.2995
X3.7145Y-3.4995
X3.7145Y-3.5995
X3.8145Y-3.2995
X3.8145Y-3.4995
X3.8145Y-3.5995
X3.9145Y-3.2995
X3.9145Y-3.4995
X3.9145Y-3.5995
X4.0145Y-3.2995
X4.0145Y-3.4995
X4.0145Y-3.5995
X4.1145Y-3.2995
X4.1145Y-3.3995
X4.1145Y-3.4995
X4.1145Y-3.5995
X4.1145Y-3.6995
X4.1145Y-3.7995
X4.1145Y-3.8995
X4.1145Y-3.9995
X4.1145Y-4.0995
X4.1145Y-4.1995
X4.1145Y-4.2995
X4.1145Y-4.3995
X4.1145Y-4.4995
X4.1145Y-4.5995
T4
X2.06Y-2.5
X2.19Y-2.5
X2.3995Y-3.9945
X2.4045Y-4.5495
X2.4057Y-2.495
X2.5357Y-2.495
X2.5495Y-3.9945
X2.5545Y-4.5495
X2.6657Y-2.495
X2.6995Y-3.9945
X2.7045Y-4.5495
X2.7957Y-2.495
X2.8595Y-3.4295
X2.8745Y-3.9945
X2.8745Y-4.5495
X2.925Y-2.495
X2.925Y-2.62
X2.925Y-2.745
X2.925Y-2.87
X2.925Y-2.995
X2.9252Y-3.1245
X3.0295Y-3.4295
X3.0395Y-3.9945
X3.0445Y-4.5495
X3.4993Y-2.465
X3.6193Y-2.465
X3.7393Y-2.465
X3.8593Y-2.465
T5
X2.2157Y-4.0141
X2.2157Y-4.1795
X2.2157Y-4.3448
T6
X2.1475Y-3.0712
X2.431Y-3.0712
T2
G00X2.0235Y-2.8133
M15
G01X2.0235Y-2.8567
M16
G05
G00X2.555Y-2.8133
M15
G01X2.555Y-2.8567
M16
G05
T0
M30
