%TF.GenerationSoftware,KiCad,Pcbnew,7.0.9*%
%TF.CreationDate,2023-12-30T21:06:32-05:00*%
%TF.ProjectId,esc,6573632e-6b69-4636-9164-5f7063625858,rev?*%
%TF.SameCoordinates,Original*%
%TF.FileFunction,Paste,Bot*%
%TF.FilePolarity,Positive*%
%FSLAX46Y46*%
G04 Gerber Fmt 4.6, Leading zero omitted, Abs format (unit mm)*
G04 Created by KiCad (PCBNEW 7.0.9) date 2023-12-30 21:06:32*
%MOMM*%
%LPD*%
G01*
G04 APERTURE LIST*
G04 Aperture macros list*
%AMRoundRect*
0 Rectangle with rounded corners*
0 $1 Rounding radius*
0 $2 $3 $4 $5 $6 $7 $8 $9 X,Y pos of 4 corners*
0 Add a 4 corners polygon primitive as box body*
4,1,4,$2,$3,$4,$5,$6,$7,$8,$9,$2,$3,0*
0 Add four circle primitives for the rounded corners*
1,1,$1+$1,$2,$3*
1,1,$1+$1,$4,$5*
1,1,$1+$1,$6,$7*
1,1,$1+$1,$8,$9*
0 Add four rect primitives between the rounded corners*
20,1,$1+$1,$2,$3,$4,$5,0*
20,1,$1+$1,$4,$5,$6,$7,0*
20,1,$1+$1,$6,$7,$8,$9,0*
20,1,$1+$1,$8,$9,$2,$3,0*%
G04 Aperture macros list end*
%ADD10R,1.000000X0.599999*%
%ADD11R,1.500000X1.500000*%
%ADD12R,0.750000X0.500000*%
%ADD13R,0.750000X0.400000*%
%ADD14RoundRect,0.250000X-0.362500X-1.425000X0.362500X-1.425000X0.362500X1.425000X-0.362500X1.425000X0*%
%ADD15RoundRect,0.250000X0.475000X-0.250000X0.475000X0.250000X-0.475000X0.250000X-0.475000X-0.250000X0*%
%ADD16RoundRect,0.200000X0.275000X-0.200000X0.275000X0.200000X-0.275000X0.200000X-0.275000X-0.200000X0*%
%ADD17RoundRect,0.200000X0.200000X0.275000X-0.200000X0.275000X-0.200000X-0.275000X0.200000X-0.275000X0*%
%ADD18RoundRect,0.225000X-0.250000X0.225000X-0.250000X-0.225000X0.250000X-0.225000X0.250000X0.225000X0*%
%ADD19RoundRect,0.200000X-0.200000X-0.275000X0.200000X-0.275000X0.200000X0.275000X-0.200000X0.275000X0*%
G04 APERTURE END LIST*
D10*
%TO.C,U302*%
X68610207Y-110730544D03*
X68610207Y-109780543D03*
X68610207Y-108830545D03*
X71360207Y-108830545D03*
X71360207Y-110730544D03*
%TD*%
%TO.C,U202*%
X68850206Y-124976545D03*
X68850206Y-124026544D03*
X68850206Y-123076546D03*
X71600206Y-123076546D03*
X71600206Y-124976545D03*
%TD*%
%TO.C,U402*%
X71222207Y-95981545D03*
X71222207Y-94081546D03*
X68472207Y-94081546D03*
X68472207Y-95031544D03*
X68472207Y-95981545D03*
%TD*%
D11*
%TO.C,Q402*%
X62941207Y-92745544D03*
X62941207Y-91045544D03*
X61241207Y-92745544D03*
X61241207Y-91045544D03*
D12*
X59836207Y-93800544D03*
X59836207Y-92530544D03*
X59836207Y-91260544D03*
X59836207Y-89990544D03*
D13*
X65641207Y-89990544D03*
X65641207Y-91260544D03*
X65641207Y-92530544D03*
X65641207Y-93800544D03*
%TD*%
D14*
%TO.C,R203*%
X68999207Y-119708544D03*
X74924207Y-119708544D03*
%TD*%
D15*
%TO.C,C201*%
X81733207Y-122583494D03*
X81733207Y-120683494D03*
%TD*%
D16*
%TO.C,R402*%
X66567207Y-97380544D03*
X66567207Y-95730544D03*
%TD*%
%TO.C,R110*%
X48500207Y-122286544D03*
X48500207Y-120636544D03*
%TD*%
%TO.C,R302*%
X66710207Y-111897544D03*
X66710207Y-110247544D03*
%TD*%
%TO.C,R112*%
X43166207Y-122286544D03*
X43166207Y-120636544D03*
%TD*%
D17*
%TO.C,R115*%
X52564207Y-104252794D03*
X50914207Y-104252794D03*
%TD*%
D18*
%TO.C,C405*%
X73425207Y-94510544D03*
X73425207Y-96060544D03*
%TD*%
%TO.C,C205*%
X73654207Y-123505544D03*
X73654207Y-125055544D03*
%TD*%
D15*
%TO.C,C401*%
X81520207Y-93765394D03*
X81520207Y-91865394D03*
%TD*%
%TO.C,C301*%
X81520207Y-108251544D03*
X81520207Y-106351544D03*
%TD*%
D17*
%TO.C,R108*%
X102851000Y-74676000D03*
X101201000Y-74676000D03*
%TD*%
%TO.C,R109*%
X102978000Y-78867000D03*
X101328000Y-78867000D03*
%TD*%
D11*
%TO.C,Q302*%
X63199207Y-107262544D03*
X63199207Y-105562544D03*
X61499207Y-107262544D03*
X61499207Y-105562544D03*
D12*
X60094207Y-108317544D03*
X60094207Y-107047544D03*
X60094207Y-105777544D03*
X60094207Y-104507544D03*
D13*
X65899207Y-104507544D03*
X65899207Y-105777544D03*
X65899207Y-107047544D03*
X65899207Y-108317544D03*
%TD*%
D16*
%TO.C,R202*%
X66796207Y-125994544D03*
X66796207Y-124344544D03*
%TD*%
D19*
%TO.C,R107*%
X101455000Y-70612000D03*
X103105000Y-70612000D03*
%TD*%
D16*
%TO.C,R111*%
X45833207Y-122259544D03*
X45833207Y-120609544D03*
%TD*%
D17*
%TO.C,R113*%
X52564207Y-108189794D03*
X50914207Y-108189794D03*
%TD*%
D14*
%TO.C,R403*%
X68557707Y-90967544D03*
X74482707Y-90967544D03*
%TD*%
%TO.C,R303*%
X68778707Y-105523544D03*
X74703707Y-105523544D03*
%TD*%
D17*
%TO.C,R114*%
X52564207Y-106187794D03*
X50914207Y-106187794D03*
%TD*%
D18*
%TO.C,C305*%
X73392207Y-109307544D03*
X73392207Y-110857544D03*
%TD*%
D11*
%TO.C,Q202*%
X63297207Y-121449344D03*
X63297207Y-119749344D03*
X61597207Y-121449344D03*
X61597207Y-119749344D03*
D12*
X60192207Y-122504344D03*
X60192207Y-121234344D03*
X60192207Y-119964344D03*
X60192207Y-118694344D03*
D13*
X65997207Y-118694344D03*
X65997207Y-119964344D03*
X65997207Y-121234344D03*
X65997207Y-122504344D03*
%TD*%
M02*
